<svg xmlns:dc="http://purl.org/dc/elements/1.1/" xmlns:cc="http://creativecommons.org/ns#" xmlns:rdf="http://www.w3.org/1999/02/22-rdf-syntax-ns#" xmlns:svg="http://www.w3.org/2000/svg" xmlns="http://www.w3.org/2000/svg" xmlns:sodipodi="http://sodipodi.sourceforge.net/DTD/sodipodi-0.dtd" xmlns:inkscape="http://www.inkscape.org/namespaces/inkscape" version="1.1" id="svg2" sodipodi:docname="new_game.eps" viewBox="0 0 256 176"><metadata id="metadata8"><rdf:RDF><cc:Work rdf:about=""><dc:format>image/svg+xml</dc:format><dc:type rdf:resource="http://purl.org/dc/dcmitype/StillImage"/></cc:Work></rdf:RDF></metadata><defs id="defs6"/><sodipodi:namedview pagecolor="#ffffff" bordercolor="#666666" borderopacity="1" objecttolerance="10" gridtolerance="10" guidetolerance="10" inkscape:pageopacity="0" inkscape:pageshadow="2" inkscape:window-width="640" inkscape:window-height="480" id="namedview4"/><g id="g10" inkscape:groupmode="layer" inkscape:label="ink_ext_XXXXXX" transform="matrix(1.3333333,0,0,-1.3333333,0,176)"><g id="g12" transform="scale(0.1)"><path d="M 0,0 H 1920 V 1320 H 0 Z" style="fill:#34abff;fill-opacity:1;fill-rule:nonzero;stroke:none" id="path14"/><path d="M 544.988,845.02 H 505 v 10 h -10 v 9.996 h 19.996 v -9.996 h 19.992 v 19.992 H 505 v 10 h -10 v 19.992 h 10 V 915 h 39.988 v -9.996 h 9.996 v -9.992 h -19.996 v 9.992 h -19.992 v -19.992 h 29.992 v -10 h 9.996 V 855.02 h -9.996 v -10" style="fill:#2885c6;fill-opacity:1;fill-rule:nonzero;stroke:none" id="path16"/><path d="m 604.973,845.02 h -19.996 v 59.984 H 564.98 V 915 h 59.985 v -9.996 H 604.973 V 845.02" style="fill:#2885c6;fill-opacity:1;fill-rule:nonzero;stroke:none" id="path18"/><path d="m 694.949,845.02 h -19.992 v 29.992 H 654.961 V 845.02 h -19.996 v 49.992 h 10 v 9.992 h 9.996 V 915 h 29.996 v -9.996 h 9.992 V 845.02 m -39.988,49.992 v -10 h 19.996 v 19.992 h -10 v -9.992 h -9.996" style="fill:#2885c6;fill-opacity:1;fill-rule:nonzero;stroke:none" id="path20"/><path d="m 764.938,845.02 h -19.997 v 29.992 H 724.945 V 845.02 H 704.949 V 915 h 49.992 v -9.996 h 9.997 v -19.992 h -9.997 v -10 h 9.997 V 845.02 m -39.993,59.984 v -19.992 h 19.996 v 19.992 h -19.996" style="fill:#2885c6;fill-opacity:1;fill-rule:nonzero;stroke:none" id="path22"/><path d="m 814.922,845.02 h -19.996 v 59.984 H 774.934 V 915 h 59.984 v -9.996 H 814.922 V 845.02" style="fill:#2885c6;fill-opacity:1;fill-rule:nonzero;stroke:none" id="path24"/><path d="m 954.883,845.02 h -19.988 v 10 h -10 v 9.996 h -10 v 9.996 h -9.997 V 845.02 H 884.902 V 915 h 19.996 v -19.988 h 9.997 v -10 h 10 v -10 h 10 V 915 h 19.988 v -69.98" style="fill:#2885c6;fill-opacity:1;fill-rule:nonzero;stroke:none" id="path26"/><path d="M 1024.86,845.02 H 964.883 V 915 h 59.977 v -9.996 h -39.977 v -19.992 h 29.987 v -10 H 984.883 V 855.02 h 39.977 v -10" style="fill:#2885c6;fill-opacity:1;fill-rule:nonzero;stroke:none" id="path28"/><path d="m 1104.84,845.02 h -19.98 v 10 h -20 v 19.992 h 20 V 855.02 h 9.99 V 915 h 20 v -59.98 h -10.01 v -10 m -39.98,0 h -20 v 10 h -10 V 915 h 20 v -59.98 h 10 v -10" style="fill:#2885c6;fill-opacity:1;fill-rule:nonzero;stroke:none" id="path30"/><path d="m 1214.85,845.02 h -40 v 10 h -10 v 49.984 h 10 V 915 h 40 v -9.996 h 9.99 v -9.992 h -19.99 v 9.992 h -20 V 855.02 h 20 v 9.996 h -10 v 9.996 h 29.99 V 855.02 h -9.99 v -10" style="fill:#2885c6;fill-opacity:1;fill-rule:nonzero;stroke:none" id="path32"/><path d="m 1294.83,845.02 h -20 v 29.992 h -20 V 845.02 h -19.99 v 49.992 h 10 v 9.992 h 9.99 V 915 h 30 v -9.996 h 10 V 845.02 m -40,49.992 v -10 h 20 v 19.992 h -10 v -9.992 h -10" style="fill:#2885c6;fill-opacity:1;fill-rule:nonzero;stroke:none" id="path34"/><path d="m 1374.8,845.02 h -19.99 v 39.992 h -10 v -10 h -10 v 10 h -10 V 845.02 h -19.99 V 915 h 19.99 v -9.996 h 10 v -9.992 h 10 v 9.992 h 10 V 915 h 19.99 v -69.98" style="fill:#2885c6;fill-opacity:1;fill-rule:nonzero;stroke:none" id="path36"/><path d="m 1444.8,845.02 h -60 V 915 h 60 v -9.996 h -40.01 v -19.992 h 30 v -10 h -30 V 855.02 h 40.01 v -10" style="fill:#2885c6;fill-opacity:1;fill-rule:nonzero;stroke:none" id="path38"/><path d="m 759.945,737.023 h -39.988 v 10 h 10 v 39.989 h -10 v 9.996 h 10 v 9.996 h 19.988 v -59.981 h 10 v -10" style="fill:#2885c6;fill-opacity:1;fill-rule:nonzero;stroke:none" id="path40"/><path d="m 829.926,737.023 h -19.992 v 69.981 h 49.988 v -9.996 h 9.996 v -29.996 h -39.992 v -29.989 m 0,59.985 v -19.996 h 19.996 v 19.996 h -19.996" style="fill:#2885c6;fill-opacity:1;fill-rule:nonzero;stroke:none" id="path42"/><path d="m 939.902,737.023 h -59.984 v 69.981 h 19.992 v -59.981 h 39.992 v -10" style="fill:#2885c6;fill-opacity:1;fill-rule:nonzero;stroke:none" id="path44"/><path d="m 1009.88,737.023 h -19.985 v 29.989 h -19.997 v -29.989 h -19.996 v 49.989 h 10 v 9.996 h 9.996 v 9.996 h 29.997 v -9.996 h 9.985 v -59.985 m -39.982,49.989 v -10 h 19.997 v 19.996 h -10 v -9.996 h -9.997" style="fill:#2885c6;fill-opacity:1;fill-rule:nonzero;stroke:none" id="path46"/><path d="m 1059.87,737.023 h -19.99 v 29.989 h -10 v 10 h -10 v 29.992 h 20 v -29.992 h 19.99 v 29.992 h 19.99 v -29.992 h -9.99 v -10 h -10 v -29.989" style="fill:#2885c6;fill-opacity:1;fill-rule:nonzero;stroke:none" id="path48"/><path d="m 1149.85,737.023 h -59.99 v 69.981 h 59.99 v -9.996 h -40 v -19.996 h 30 v -10 h -30 v -19.989 h 40 v -10" style="fill:#2885c6;fill-opacity:1;fill-rule:nonzero;stroke:none" id="path50"/><path d="m 1219.83,737.023 h -20 v 29.989 h -19.99 v -29.989 h -19.99 v 69.981 h 49.98 v -9.996 h 10 v -19.996 h -10 v -10 h 10 v -29.989 m -39.99,59.985 v -19.996 h 19.99 v 19.996 h -19.99" style="fill:#2885c6;fill-opacity:1;fill-rule:nonzero;stroke:none" id="path52"/><path d="m 734.949,629.023 h -59.984 v 19.993 h 10 v 9.992 h 9.996 v 10 h 19.996 v 19.996 h -19.996 v -9.996 h -9.996 v -10 h -10 v 19.996 h 10 V 699 h 39.992 v -9.996 h 9.992 v -19.996 h -9.992 v -10 h -20 v -9.992 h -9.996 v -9.993 h 39.988 v -10" style="fill:#2885c6;fill-opacity:1;fill-rule:nonzero;stroke:none" id="path54"/><path d="M 804.938,629.023 H 784.941 V 699 h 49.989 v -9.996 h 9.996 v -29.996 h -39.988 v -29.985 m 0,59.981 v -19.996 h 19.992 v 19.996 h -19.992" style="fill:#2885c6;fill-opacity:1;fill-rule:nonzero;stroke:none" id="path56"/><path d="M 914.906,629.023 H 854.922 V 699 h 19.996 v -59.977 h 39.988 v -10" style="fill:#2885c6;fill-opacity:1;fill-rule:nonzero;stroke:none" id="path58"/><path d="m 984.883,629.023 h -19.992 v 29.985 h -19.993 v -29.985 h -19.996 v 49.985 h 10 v 9.996 h 9.996 V 699 h 29.993 v -9.996 h 9.992 v -59.981 m -39.985,49.985 v -10 h 19.993 v 19.996 h -9.996 v -9.996 h -9.997" style="fill:#2885c6;fill-opacity:1;fill-rule:nonzero;stroke:none" id="path60"/><path d="m 1034.88,629.023 h -20 v 29.985 h -10 v 10 h -9.997 V 699 h 19.997 v -29.992 h 20 V 699 h 19.99 v -29.992 h -9.99 v -10 h -10 v -29.985" style="fill:#2885c6;fill-opacity:1;fill-rule:nonzero;stroke:none" id="path62"/><path d="m 1124.85,629.023 h -59.98 V 699 h 59.98 v -9.996 h -39.99 v -19.996 h 30 v -10 h -30 v -19.985 h 39.99 v -10" style="fill:#2885c6;fill-opacity:1;fill-rule:nonzero;stroke:none" id="path64"/><path d="m 1194.83,629.023 h -19.99 v 29.985 h -19.99 v -29.985 h -20 V 699 h 49.99 v -9.996 h 9.99 v -19.996 h -9.99 v -10 h 9.99 v -29.985 m -39.98,59.981 v -19.996 h 19.99 v 19.996 h -19.99" style="fill:#2885c6;fill-opacity:1;fill-rule:nonzero;stroke:none" id="path66"/><path d="m 1254.82,629.023 h -39.99 v 10 h -10 v 9.993 h 20 v -9.993 h 19.99 v 19.985 h -29.99 v 10 h -10 v 19.996 h 10 V 699 h 39.99 v -9.996 h 9.99 v -9.996 h -19.99 v 9.996 h -19.99 v -19.996 h 29.99 v -10 h 9.99 v -19.985 h -9.99 v -10" style="fill:#2885c6;fill-opacity:1;fill-rule:nonzero;stroke:none" id="path68"/><path d="m 50,280 h 10 v 10 H 50 v -10" style="fill:#99e550;fill-opacity:1;fill-rule:nonzero;stroke:none" id="path70"/><path d="m 0,320 v -20 h 10 v -10 h 20 v 10 H 20 v 10 h 20 v -10 h 20 v -10 h 10 v 10 h 10 v 10 h 10 v -10 h 10 v -10 h 20 v 10 h -10 v 10 h 20 v -10 h 20 v -10 h 20 v 10 h -10 v 10 h 10 v -10 h 10 v -10 h 10 v 10 h 10 v -20 h 10 v 10 h 10 v 10 h -10 v 10 h 20 v -10 h 10 v -10 h 10 v 20 h 10 v -10 h 20 v -10 h 20 v 10 h -10 v 10 h 20 v -10 h 10 v 20 H 0" style="fill:#99e550;fill-opacity:1;fill-rule:nonzero;stroke:none" id="path72"/><path d="m 310,310 h -20 v -10 h 10 v -10 h -20 v 10 h -20 v 10 h -10 v -20 h -10 v 10 h -10 v 10 h -20 v -10 h 10 v -10 h -10 v -10 h -10 v 20 h -10 v -10 h -10 v 10 h -10 v -10 h -20 v 10 h -20 v 10 h -20 v -10 h 10 v -10 h -20 v 10 H 90 v 10 H 80 V 300 H 70 V 290 H 60 V 280 H 50 v 10 h 10 v 10 H 40 v 10 H 20 V 300 H 30 V 290 H 10 v 10 H 0 v -30 h 10 v 10 h 10 v -10 h 10 v -10 h 10 v 10 h 20 v -10 h 10 v -10 h 10 v 10 h 10 v 20 H 80 v 10 h 10 v -10 h 10 v -10 h 40 v 10 h 10 v -10 h 20 v 10 h 10 v -10 h 20 v -10 h 20 v 10 h 10 v 10 h 10 v -10 h -10 v -10 h 20 v 10 h 10 v -10 h 10 v 10 h 10 v 10 h 10 v -10 h 20 v -10 h 10 v 40 h -10 v 10" style="fill:#6abe30;fill-opacity:1;fill-rule:nonzero;stroke:none" id="path74"/><path d="m 160,310 v -10 h 10 v 10 h -10" style="fill:#6abe30;fill-opacity:1;fill-rule:nonzero;stroke:none" id="path76"/><path d="m 70,240 h 10 v 10 H 70 v -10" style="fill:#4b692f;fill-opacity:1;fill-rule:nonzero;stroke:none" id="path78"/><path d="m 310,250 h 10 v 10 h -10 v -10" style="fill:#4b692f;fill-opacity:1;fill-rule:nonzero;stroke:none" id="path80"/><path d="m 260,250 h 10 v 10 h -10 v -10" style="fill:#4b692f;fill-opacity:1;fill-rule:nonzero;stroke:none" id="path82"/><path d="m 230,260 v 10 h -10 v -10 h -20 v -10 h 30 v -10 h 10 v 10 h 10 v 10 h -20" style="fill:#4b692f;fill-opacity:1;fill-rule:nonzero;stroke:none" id="path84"/><path d="m 80,250 h 10 v 10 H 80 v -10" style="fill:#4b692f;fill-opacity:1;fill-rule:nonzero;stroke:none" id="path86"/><path d="m 60,260 v -10 h 10 v 10 H 60" style="fill:#4b692f;fill-opacity:1;fill-rule:nonzero;stroke:none" id="path88"/><path d="m 30,250 h 10 v 10 H 30 v -10" style="fill:#4b692f;fill-opacity:1;fill-rule:nonzero;stroke:none" id="path90"/><path d="m 290,270 v 10 h -10 v -10 h -10 v -10 h 20 v -10 h 10 v 10 h 10 v 10 h -20" style="fill:#4b692f;fill-opacity:1;fill-rule:nonzero;stroke:none" id="path92"/><path d="m 250,270 v -10 h 10 v 10 h -10" style="fill:#4b692f;fill-opacity:1;fill-rule:nonzero;stroke:none" id="path94"/><path d="m 180,270 v -10 h 20 v 10 h -20" style="fill:#4b692f;fill-opacity:1;fill-rule:nonzero;stroke:none" id="path96"/><path d="m 150,270 v -10 h 10 v -10 h 10 v 20 h -20" style="fill:#4b692f;fill-opacity:1;fill-rule:nonzero;stroke:none" id="path98"/><path d="m 100,270 v 10 H 90 v -20 h 50 v 10 h -40" style="fill:#4b692f;fill-opacity:1;fill-rule:nonzero;stroke:none" id="path100"/><path d="m 40,270 v -10 h 20 v 10 H 40" style="fill:#4b692f;fill-opacity:1;fill-rule:nonzero;stroke:none" id="path102"/><path d="m 20,270 v -10 h 10 v 10 H 20" style="fill:#4b692f;fill-opacity:1;fill-rule:nonzero;stroke:none" id="path104"/><path d="m 0,260 h 10 v 10 H 0 v -10" style="fill:#4b692f;fill-opacity:1;fill-rule:nonzero;stroke:none" id="path106"/><path d="m 240,280 h -10 v -10 h 10 v 10" style="fill:#4b692f;fill-opacity:1;fill-rule:nonzero;stroke:none" id="path108"/><path d="m 170,280 v -10 h 10 v 10 h -10" style="fill:#4b692f;fill-opacity:1;fill-rule:nonzero;stroke:none" id="path110"/><path d="m 140,280 v -10 h 10 v 10 h -10" style="fill:#4b692f;fill-opacity:1;fill-rule:nonzero;stroke:none" id="path112"/><path d="m 10,280 v -10 h 10 v 10 H 10" style="fill:#4b692f;fill-opacity:1;fill-rule:nonzero;stroke:none" id="path114"/><path d="m 80,290 v -10 h 10 v 10 H 80" style="fill:#4b692f;fill-opacity:1;fill-rule:nonzero;stroke:none" id="path116"/><path d="m 280,190 v -20 h -10 v 10 h -10 v 20 h 10 v -10 z m 30,-30 h -10 v -10 h -10 v 10 h 10 v 10 h 10 z M 10,160 H 20 V 150 H 10 Z m 20,30 h 10 v 10 H 60 V 190 H 50 V 180 H 30 Z m 60,0 V 180 H 80 V 170 H 60 v 10 h 10 v 10 z m 20,10 v 10 h 20 v -20 h -10 v -10 h -10 v 10 h -10 v 10 z m 50,0 v -20 h 10 v -10 h -10 v 10 h -20 v 10 h 10 v 10 z m 60,-20 v 10 h 20 v -10 h -10 v -10 h -20 v 10 z m 40,-30 h -10 v -10 h -10 v 20 h 10 v 10 h 10 z m -70,10 h 10 v -10 h -10 z m -50,10 v -10 h 10 v -10 h -10 v 10 h -20 v 10 z m -50,0 h 10 V 160 H 90 V 150 H 80 v 10 h 10 z m -60,0 H 40 V 160 H 30 Z m 250,40 h -30 v 10 h -10 v -10 h -10 v -10 h -10 v 20 h -10 v -30 h -30 v 10 h -10 v 10 h -20 v 10 h -10 v 10 h -10 v -10 h -20 v 20 H 100 V 220 H 90 V 200 H 70 v 10 H 60 v 10 H 50 V 210 H 30 v 20 H 20 V 210 H 10 V 200 H 0 V 190 H 20 V 180 H 0 V 0 h 320 v 200 h -10 v -10 h -20 v 10 h -10 v 10" style="fill:#663931;fill-opacity:1;fill-rule:nonzero;stroke:none" id="path118"/><path d="m 290,200 h 10 v 10 h 10 v 10 h -10 v 10 h -10 v -30" style="fill:#663931;fill-opacity:1;fill-rule:nonzero;stroke:none" id="path120"/><path d="m 170,210 h 30 v 10 h -20 v 10 h -10 v -20" style="fill:#663931;fill-opacity:1;fill-rule:nonzero;stroke:none" id="path122"/><path d="m 320,230 h -10 v -10 h 10 v 10" style="fill:#663931;fill-opacity:1;fill-rule:nonzero;stroke:none" id="path124"/><path d="m 270,220 v 10 h -20 v -10 h 20" style="fill:#663931;fill-opacity:1;fill-rule:nonzero;stroke:none" id="path126"/><path d="M 10,230 H 0 v -20 h 10 v 20" style="fill:#663931;fill-opacity:1;fill-rule:nonzero;stroke:none" id="path128"/><path d="m 140,230 h 10 v 10 h -10 v -10" style="fill:#663931;fill-opacity:1;fill-rule:nonzero;stroke:none" id="path130"/><path d="M 20,240 H 10 v -10 h 10 v 10" style="fill:#663931;fill-opacity:1;fill-rule:nonzero;stroke:none" id="path132"/><path d="m 310,260 h -10 v -10 h -10 v 10 h -20 v -10 h -10 v 10 h -10 v -10 h -10 v -10 h -10 v 10 h -30 v 10 h -20 v 10 h -10 v -20 h -10 v 10 h -10 v 10 H 140 V 260 H 90 V 250 H 80 V 240 H 70 v 10 H 60 v 10 H 40 V 250 H 30 v 10 H 20 v 10 H 10 V 260 H 0 v -10 h 20 v -10 h 40 v -20 h 10 v 10 h 20 v 10 h 10 v 10 h 50 v -10 h 10 v -10 h 10 v 10 h 10 v 10 h 10 v -10 h 10 v -20 h 10 v 20 h 10 v -10 h 30 v 10 h 20 v -10 h 20 v 10 h 30 v 10 h -10 v 10" style="fill:#663931;fill-opacity:1;fill-rule:nonzero;stroke:none" id="path134"/><path d="m 300,160 h -10 v -10 h 10 v 10" style="fill:#8f563b;fill-opacity:1;fill-rule:nonzero;stroke:none" id="path136"/><path d="m 240,140 h 10 v 10 h 10 v 20 h -10 v -10 h -10 v -20" style="fill:#8f563b;fill-opacity:1;fill-rule:nonzero;stroke:none" id="path138"/><path d="m 200,160 h -10 v -10 h 10 v 10" style="fill:#8f563b;fill-opacity:1;fill-rule:nonzero;stroke:none" id="path140"/><path d="m 150,150 v 10 h -10 v -10 h 10" style="fill:#8f563b;fill-opacity:1;fill-rule:nonzero;stroke:none" id="path142"/><path d="m 80,150 h 10 v 10 H 80 v -10" style="fill:#8f563b;fill-opacity:1;fill-rule:nonzero;stroke:none" id="path144"/><path d="m 10,150 h 10 v 10 H 10 v -10" style="fill:#8f563b;fill-opacity:1;fill-rule:nonzero;stroke:none" id="path146"/><path d="m 310,170 h -10 v -10 h 10 v 10" style="fill:#8f563b;fill-opacity:1;fill-rule:nonzero;stroke:none" id="path148"/><path d="m 120,170 v -10 h 20 v 10 h -20" style="fill:#8f563b;fill-opacity:1;fill-rule:nonzero;stroke:none" id="path150"/><path d="m 90,160 h 10 v 10 H 90 v -10" style="fill:#8f563b;fill-opacity:1;fill-rule:nonzero;stroke:none" id="path152"/><path d="m 30,160 h 10 v 10 H 30 v -10" style="fill:#8f563b;fill-opacity:1;fill-rule:nonzero;stroke:none" id="path154"/><path d="m 170,170 v 10 h -10 v -10 h 10" style="fill:#8f563b;fill-opacity:1;fill-rule:nonzero;stroke:none" id="path156"/><path d="m 220,190 v -10 h -10 v -10 h 20 v 10 h 10 v 10 h -20" style="fill:#8f563b;fill-opacity:1;fill-rule:nonzero;stroke:none" id="path158"/><path d="M 70,190 V 180 H 60 v -10 h 20 v 10 h 10 v 10 H 70" style="fill:#8f563b;fill-opacity:1;fill-rule:nonzero;stroke:none" id="path160"/><path d="m 20,180 v 10 H 0 v -10 h 20" style="fill:#8f563b;fill-opacity:1;fill-rule:nonzero;stroke:none" id="path162"/><path d="m 260,200 v -20 h 10 v -10 h 10 v 20 h -10 v 10 h -10" style="fill:#8f563b;fill-opacity:1;fill-rule:nonzero;stroke:none" id="path164"/><path d="m 160,200 h -10 v -10 h -10 v -10 h 20 v 20" style="fill:#8f563b;fill-opacity:1;fill-rule:nonzero;stroke:none" id="path166"/><path d="M 40,200 V 190 H 30 v -10 h 20 v 10 h 10 v 10 H 40" style="fill:#8f563b;fill-opacity:1;fill-rule:nonzero;stroke:none" id="path168"/><path d="m 300,210 v -10 h -10 v -10 h 20 v 10 h 10 v 20 h -10 v -10 h -10" style="fill:#8f563b;fill-opacity:1;fill-rule:nonzero;stroke:none" id="path170"/><path d="m 110,210 v -10 h -10 v -10 h 10 v -10 h 10 v 10 h 10 v 20 h -20" style="fill:#8f563b;fill-opacity:1;fill-rule:nonzero;stroke:none" id="path172"/><path d="m 0,200 h 10 v 10 H 0 v -10" style="fill:#8f563b;fill-opacity:1;fill-rule:nonzero;stroke:none" id="path174"/><path d="m 290,230 h -20 v -10 h -20 v -10 h 30 v -10 h 10 v 30" style="fill:#8f563b;fill-opacity:1;fill-rule:nonzero;stroke:none" id="path176"/><path d="m 200,210 h -30 v -10 h 10 v -10 h 30 v 30 h -10 v -10" style="fill:#8f563b;fill-opacity:1;fill-rule:nonzero;stroke:none" id="path178"/><path d="m 220,230 v 10 h -10 v -20 h 10 v -20 h 10 v 10 h 10 v 10 h 10 v 10 h -30" style="fill:#8f563b;fill-opacity:1;fill-rule:nonzero;stroke:none" id="path180"/><path d="m 180,220 h 20 v 20 h -10 v 10 h -10 v -10 h -10 v -10 h 10 v -10" style="fill:#8f563b;fill-opacity:1;fill-rule:nonzero;stroke:none" id="path182"/><path d="m 170,230 h -10 v 10 h -10 v -10 h -10 v -10 h 10 v -10 h 20 v 20" style="fill:#8f563b;fill-opacity:1;fill-rule:nonzero;stroke:none" id="path184"/><path d="m 10,210 h 10 v 20 H 10 v -20" style="fill:#8f563b;fill-opacity:1;fill-rule:nonzero;stroke:none" id="path186"/><path d="m 290,240 v -10 h 10 v -10 h 10 v 10 h 10 v 10 h -30" style="fill:#8f563b;fill-opacity:1;fill-rule:nonzero;stroke:none" id="path188"/><path d="m 270,230 v 10 h -20 v -10 h 20" style="fill:#8f563b;fill-opacity:1;fill-rule:nonzero;stroke:none" id="path190"/><path d="M 90,230 H 70 V 220 H 60 v -10 h 10 v -10 h 20 v 20 h 10 v 20 H 90 v -10" style="fill:#8f563b;fill-opacity:1;fill-rule:nonzero;stroke:none" id="path192"/><path d="M 60,240 H 20 v -10 h 10 v -20 h 20 v 10 h 10 v 20" style="fill:#8f563b;fill-opacity:1;fill-rule:nonzero;stroke:none" id="path194"/><path d="m 150,240 v 10 h -50 v -10 h 10 v -20 h 20 v 10 h 10 v 10 h 10" style="fill:#8f563b;fill-opacity:1;fill-rule:nonzero;stroke:none" id="path196"/><path d="m 20,240 v 10 H 0 v -20 h 10 v 10 h 10" style="fill:#8f563b;fill-opacity:1;fill-rule:nonzero;stroke:none" id="path198"/><path d="m 370,280 h 10 v 10 h -10 v -10" style="fill:#99e550;fill-opacity:1;fill-rule:nonzero;stroke:none" id="path200"/><path d="m 320,320 v -20 h 10 v -10 h 20 v 10 h -10 v 10 h 20 v -10 h 20 v -10 h 10 v 10 h 10 v 10 h 10 v -10 h 10 v -10 h 20 v 10 h -10 v 10 h 20 v -10 h 20 v -10 h 20 v 10 h -10 v 10 h 10 v -10 h 10 v -10 h 10 v 10 h 10 v -20 h 10 v 10 h 10 v 10 h -10 v 10 h 20 v -10 h 10 v -10 h 10 v 20 h 10 v -10 h 20 v -10 h 20 v 10 h -10 v 10 h 20 v -10 h 10 v 20 H 320" style="fill:#99e550;fill-opacity:1;fill-rule:nonzero;stroke:none" id="path202"/><path d="m 630,310 h -20 v -10 h 10 v -10 h -20 v 10 h -20 v 10 h -10 v -20 h -10 v 10 h -10 v 10 h -20 v -10 h 10 v -10 h -10 v -10 h -10 v 20 h -10 v -10 h -10 v 10 h -10 v -10 h -20 v 10 h -20 v 10 h -20 v -10 h 10 v -10 h -20 v 10 h -10 v 10 h -10 v -10 h -10 v -10 h -10 v -10 h -10 v 10 h 10 v 10 h -20 v 10 h -20 v -10 h 10 v -10 h -20 v 10 h -10 v -30 h 10 v 10 h 10 v -10 h 10 v -10 h 10 v 10 h 20 v -10 h 10 v -10 h 10 v 10 h 10 v 20 h -10 v 10 h 10 v -10 h 10 v -10 h 40 v 10 h 10 v -10 h 20 v 10 h 10 v -10 h 20 v -10 h 20 v 10 h 10 v 10 h 10 v -10 h -10 v -10 h 20 v 10 h 10 v -10 h 10 v 10 h 10 v 10 h 10 v -10 h 20 v -10 h 10 v 40 h -10 v 10" style="fill:#6abe30;fill-opacity:1;fill-rule:nonzero;stroke:none" id="path204"/><path d="m 480,310 v -10 h 10 v 10 h -10" style="fill:#6abe30;fill-opacity:1;fill-rule:nonzero;stroke:none" id="path206"/><path d="m 390,240 h 10 v 10 h -10 v -10" style="fill:#4b692f;fill-opacity:1;fill-rule:nonzero;stroke:none" id="path208"/><path d="m 630,250 h 10 v 10 h -10 v -10" style="fill:#4b692f;fill-opacity:1;fill-rule:nonzero;stroke:none" id="path210"/><path d="m 580,250 h 10 v 10 h -10 v -10" style="fill:#4b692f;fill-opacity:1;fill-rule:nonzero;stroke:none" id="path212"/><path d="m 550,260 v 10 h -10 v -10 h -20 v -10 h 30 v -10 h 10 v 10 h 10 v 10 h -20" style="fill:#4b692f;fill-opacity:1;fill-rule:nonzero;stroke:none" id="path214"/><path d="m 400,250 h 10 v 10 h -10 v -10" style="fill:#4b692f;fill-opacity:1;fill-rule:nonzero;stroke:none" id="path216"/><path d="m 380,260 v -10 h 10 v 10 h -10" style="fill:#4b692f;fill-opacity:1;fill-rule:nonzero;stroke:none" id="path218"/><path d="m 350,250 h 10 v 10 h -10 v -10" style="fill:#4b692f;fill-opacity:1;fill-rule:nonzero;stroke:none" id="path220"/><path d="m 610,270 v 10 h -10 v -10 h -10 v -10 h 20 v -10 h 10 v 10 h 10 v 10 h -20" style="fill:#4b692f;fill-opacity:1;fill-rule:nonzero;stroke:none" id="path222"/><path d="m 570,270 v -10 h 10 v 10 h -10" style="fill:#4b692f;fill-opacity:1;fill-rule:nonzero;stroke:none" id="path224"/><path d="m 500,270 v -10 h 20 v 10 h -20" style="fill:#4b692f;fill-opacity:1;fill-rule:nonzero;stroke:none" id="path226"/><path d="m 470,270 v -10 h 10 v -10 h 10 v 20 h -20" style="fill:#4b692f;fill-opacity:1;fill-rule:nonzero;stroke:none" id="path228"/><path d="m 420,270 v 10 h -10 v -20 h 50 v 10 h -40" style="fill:#4b692f;fill-opacity:1;fill-rule:nonzero;stroke:none" id="path230"/><path d="m 360,270 v -10 h 20 v 10 h -20" style="fill:#4b692f;fill-opacity:1;fill-rule:nonzero;stroke:none" id="path232"/><path d="m 340,270 v -10 h 10 v 10 h -10" style="fill:#4b692f;fill-opacity:1;fill-rule:nonzero;stroke:none" id="path234"/><path d="m 320,260 h 10 v 10 h -10 v -10" style="fill:#4b692f;fill-opacity:1;fill-rule:nonzero;stroke:none" id="path236"/><path d="m 560,280 h -10 v -10 h 10 v 10" style="fill:#4b692f;fill-opacity:1;fill-rule:nonzero;stroke:none" id="path238"/><path d="m 490,280 v -10 h 10 v 10 h -10" style="fill:#4b692f;fill-opacity:1;fill-rule:nonzero;stroke:none" id="path240"/><path d="m 460,280 v -10 h 10 v 10 h -10" style="fill:#4b692f;fill-opacity:1;fill-rule:nonzero;stroke:none" id="path242"/><path d="m 330,280 v -10 h 10 v 10 h -10" style="fill:#4b692f;fill-opacity:1;fill-rule:nonzero;stroke:none" id="path244"/><path d="m 400,290 v -10 h 10 v 10 h -10" style="fill:#4b692f;fill-opacity:1;fill-rule:nonzero;stroke:none" id="path246"/><path d="m 600,190 v -20 h -10 v 10 h -10 v 20 h 10 v -10 z m 30,-30 h -10 v -10 h -10 v 10 h 10 v 10 h 10 z m -300,0 h 10 v -10 h -10 z m 20,30 h 10 v 10 h 20 v -10 h -10 v -10 h -20 z m 60,0 v -10 h -10 v -10 h -20 v 10 h 10 v 10 z m 20,10 v 10 h 20 v -20 h -10 v -10 h -10 v 10 h -10 v 10 z m 50,0 v -20 h 10 v -10 h -10 v 10 h -20 v 10 h 10 v 10 z m 60,-20 v 10 h 20 v -10 h -10 v -10 h -20 v 10 z m 40,-30 h -10 v -10 h -10 v 20 h 10 v 10 h 10 z m -70,10 h 10 v -10 h -10 z m -50,10 v -10 h 10 v -10 h -10 v 10 h -20 v 10 z m -50,0 h 10 v -10 h -10 v -10 h -10 v 10 h 10 z m -60,0 h 10 v -10 h -10 z m 250,40 h -30 v 10 h -10 v -10 h -10 v -10 h -10 v 20 h -10 v -30 h -30 v 10 h -10 v 10 h -20 v 10 h -10 v 10 h -10 v -10 h -20 v 20 h -10 v -20 h -10 v -20 h -20 v 10 h -10 v 10 h -10 v -10 h -20 v 20 h -10 v -20 h -10 v -10 h -10 v -10 h 20 V 180 H 320 V 0 h 320 v 200 h -10 v -10 h -20 v 10 h -10 v 10" style="fill:#663931;fill-opacity:1;fill-rule:nonzero;stroke:none" id="path248"/><path d="m 610,200 h 10 v 10 h 10 v 10 h -10 v 10 h -10 v -30" style="fill:#663931;fill-opacity:1;fill-rule:nonzero;stroke:none" id="path250"/><path d="m 490,210 h 30 v 10 h -20 v 10 h -10 v -20" style="fill:#663931;fill-opacity:1;fill-rule:nonzero;stroke:none" id="path252"/><path d="m 640,230 h -10 v -10 h 10 v 10" style="fill:#663931;fill-opacity:1;fill-rule:nonzero;stroke:none" id="path254"/><path d="m 590,220 v 10 h -20 v -10 h 20" style="fill:#663931;fill-opacity:1;fill-rule:nonzero;stroke:none" id="path256"/><path d="m 330,230 h -10 v -20 h 10 v 20" style="fill:#663931;fill-opacity:1;fill-rule:nonzero;stroke:none" id="path258"/><path d="m 460,230 h 10 v 10 h -10 v -10" style="fill:#663931;fill-opacity:1;fill-rule:nonzero;stroke:none" id="path260"/><path d="m 340,240 h -10 v -10 h 10 v 10" style="fill:#663931;fill-opacity:1;fill-rule:nonzero;stroke:none" id="path262"/><path d="m 630,260 h -10 v -10 h -10 v 10 h -20 v -10 h -10 v 10 h -10 v -10 h -10 v -10 h -10 v 10 h -30 v 10 h -20 v 10 h -10 v -20 h -10 v 10 h -10 v 10 h -10 v -10 h -50 v -10 h -10 v -10 h -10 v 10 h -10 v 10 h -20 v -10 h -10 v 10 h -10 v 10 h -10 v -10 h -10 v -10 h 20 v -10 h 40 v -20 h 10 v 10 h 20 v 10 h 10 v 10 h 50 v -10 h 10 v -10 h 10 v 10 h 10 v 10 h 10 v -10 h 10 v -20 h 10 v 20 h 10 v -10 h 30 v 10 h 20 v -10 h 20 v 10 h 30 v 10 h -10 v 10" style="fill:#663931;fill-opacity:1;fill-rule:nonzero;stroke:none" id="path264"/><path d="m 620,160 h -10 v -10 h 10 v 10" style="fill:#8f563b;fill-opacity:1;fill-rule:nonzero;stroke:none" id="path266"/><path d="m 560,140 h 10 v 10 h 10 v 20 h -10 v -10 h -10 v -20" style="fill:#8f563b;fill-opacity:1;fill-rule:nonzero;stroke:none" id="path268"/><path d="m 520,160 h -10 v -10 h 10 v 10" style="fill:#8f563b;fill-opacity:1;fill-rule:nonzero;stroke:none" id="path270"/><path d="m 470,150 v 10 h -10 v -10 h 10" style="fill:#8f563b;fill-opacity:1;fill-rule:nonzero;stroke:none" id="path272"/><path d="m 400,150 h 10 v 10 h -10 v -10" style="fill:#8f563b;fill-opacity:1;fill-rule:nonzero;stroke:none" id="path274"/><path d="m 330,150 h 10 v 10 h -10 v -10" style="fill:#8f563b;fill-opacity:1;fill-rule:nonzero;stroke:none" id="path276"/><path d="m 630,170 h -10 v -10 h 10 v 10" style="fill:#8f563b;fill-opacity:1;fill-rule:nonzero;stroke:none" id="path278"/><path d="m 440,170 v -10 h 20 v 10 h -20" style="fill:#8f563b;fill-opacity:1;fill-rule:nonzero;stroke:none" id="path280"/><path d="m 410,160 h 10 v 10 h -10 v -10" style="fill:#8f563b;fill-opacity:1;fill-rule:nonzero;stroke:none" id="path282"/><path d="m 350,160 h 10 v 10 h -10 v -10" style="fill:#8f563b;fill-opacity:1;fill-rule:nonzero;stroke:none" id="path284"/><path d="m 490,170 v 10 h -10 v -10 h 10" style="fill:#8f563b;fill-opacity:1;fill-rule:nonzero;stroke:none" id="path286"/><path d="m 540,190 v -10 h -10 v -10 h 20 v 10 h 10 v 10 h -20" style="fill:#8f563b;fill-opacity:1;fill-rule:nonzero;stroke:none" id="path288"/><path d="m 390,190 v -10 h -10 v -10 h 20 v 10 h 10 v 10 h -20" style="fill:#8f563b;fill-opacity:1;fill-rule:nonzero;stroke:none" id="path290"/><path d="m 340,180 v 10 h -20 v -10 h 20" style="fill:#8f563b;fill-opacity:1;fill-rule:nonzero;stroke:none" id="path292"/><path d="m 580,200 v -20 h 10 v -10 h 10 v 20 h -10 v 10 h -10" style="fill:#8f563b;fill-opacity:1;fill-rule:nonzero;stroke:none" id="path294"/><path d="m 480,200 h -10 v -10 h -10 v -10 h 20 v 20" style="fill:#8f563b;fill-opacity:1;fill-rule:nonzero;stroke:none" id="path296"/><path d="m 360,200 v -10 h -10 v -10 h 20 v 10 h 10 v 10 h -20" style="fill:#8f563b;fill-opacity:1;fill-rule:nonzero;stroke:none" id="path298"/><path d="m 620,210 v -10 h -10 v -10 h 20 v 10 h 10 v 20 h -10 v -10 h -10" style="fill:#8f563b;fill-opacity:1;fill-rule:nonzero;stroke:none" id="path300"/><path d="m 430,210 v -10 h -10 v -10 h 10 v -10 h 10 v 10 h 10 v 20 h -20" style="fill:#8f563b;fill-opacity:1;fill-rule:nonzero;stroke:none" id="path302"/><path d="m 320,200 h 10 v 10 h -10 v -10" style="fill:#8f563b;fill-opacity:1;fill-rule:nonzero;stroke:none" id="path304"/><path d="m 610,230 h -20 v -10 h -20 v -10 h 30 v -10 h 10 v 30" style="fill:#8f563b;fill-opacity:1;fill-rule:nonzero;stroke:none" id="path306"/><path d="m 520,210 h -30 v -10 h 10 v -10 h 30 v 30 h -10 v -10" style="fill:#8f563b;fill-opacity:1;fill-rule:nonzero;stroke:none" id="path308"/><path d="m 540,230 v 10 h -10 v -20 h 10 v -20 h 10 v 10 h 10 v 10 h 10 v 10 h -30" style="fill:#8f563b;fill-opacity:1;fill-rule:nonzero;stroke:none" id="path310"/><path d="m 500,220 h 20 v 20 h -10 v 10 h -10 v -10 h -10 v -10 h 10 v -10" style="fill:#8f563b;fill-opacity:1;fill-rule:nonzero;stroke:none" id="path312"/><path d="m 490,230 h -10 v 10 h -10 v -10 h -10 v -10 h 10 v -10 h 20 v 20" style="fill:#8f563b;fill-opacity:1;fill-rule:nonzero;stroke:none" id="path314"/><path d="m 330,210 h 10 v 20 h -10 v -20" style="fill:#8f563b;fill-opacity:1;fill-rule:nonzero;stroke:none" id="path316"/><path d="m 610,240 v -10 h 10 v -10 h 10 v 10 h 10 v 10 h -30" style="fill:#8f563b;fill-opacity:1;fill-rule:nonzero;stroke:none" id="path318"/><path d="m 590,230 v 10 h -20 v -10 h 20" style="fill:#8f563b;fill-opacity:1;fill-rule:nonzero;stroke:none" id="path320"/><path d="m 410,230 h -20 v -10 h -10 v -10 h 10 v -10 h 20 v 20 h 10 v 20 h -10 v -10" style="fill:#8f563b;fill-opacity:1;fill-rule:nonzero;stroke:none" id="path322"/><path d="m 380,240 h -40 v -10 h 10 v -20 h 20 v 10 h 10 v 20" style="fill:#8f563b;fill-opacity:1;fill-rule:nonzero;stroke:none" id="path324"/><path d="m 470,240 v 10 h -50 v -10 h 10 v -20 h 20 v 10 h 10 v 10 h 10" style="fill:#8f563b;fill-opacity:1;fill-rule:nonzero;stroke:none" id="path326"/><path d="m 340,240 v 10 h -20 v -20 h 10 v 10 h 10" style="fill:#8f563b;fill-opacity:1;fill-rule:nonzero;stroke:none" id="path328"/><path d="m 690,280 h 10 v 10 h -10 v -10" style="fill:#99e550;fill-opacity:1;fill-rule:nonzero;stroke:none" id="path330"/><path d="m 640,320 v -20 h 10 v -10 h 20 v 10 h -10 v 10 h 20 v -10 h 20 v -10 h 10 v 10 h 10 v 10 h 10 v -10 h 10 v -10 h 20 v 10 h -10 v 10 h 20 v -10 h 20 v -10 h 20 v 10 h -10 v 10 h 10 v -10 h 10 v -10 h 10 v 10 h 10 v -20 h 10 v 10 h 10 v 10 h -10 v 10 h 20 v -10 h 10 v -10 h 10 v 20 h 10 v -10 h 20 v -10 h 20 v 10 h -10 v 10 h 20 v -10 h 10 v 20 H 640" style="fill:#99e550;fill-opacity:1;fill-rule:nonzero;stroke:none" id="path332"/><path d="m 950,310 h -20 v -10 h 10 v -10 h -20 v 10 h -20 v 10 h -10 v -20 h -10 v 10 h -10 v 10 h -20 v -10 h 10 v -10 h -10 v -10 h -10 v 20 h -10 v -10 h -10 v 10 h -10 v -10 h -20 v 10 h -20 v 10 h -20 v -10 h 10 v -10 h -20 v 10 h -10 v 10 h -10 v -10 h -10 v -10 h -10 v -10 h -10 v 10 h 10 v 10 h -20 v 10 h -20 v -10 h 10 v -10 h -20 v 10 h -10 v -30 h 10 v 10 h 10 v -10 h 10 v -10 h 10 v 10 h 20 v -10 h 10 v -10 h 10 v 10 h 10 v 20 h -10 v 10 h 10 v -10 h 10 v -10 h 40 v 10 h 10 v -10 h 20 v 10 h 10 v -10 h 20 v -10 h 20 v 10 h 10 v 10 h 10 v -10 h -10 v -10 h 20 v 10 h 10 v -10 h 10 v 10 h 10 v 10 h 10 v -10 h 20 v -10 h 10 v 40 h -10 v 10" style="fill:#6abe30;fill-opacity:1;fill-rule:nonzero;stroke:none" id="path334"/><path d="m 800,310 v -10 h 10 v 10 h -10" style="fill:#6abe30;fill-opacity:1;fill-rule:nonzero;stroke:none" id="path336"/><path d="m 710,240 h 10 v 10 h -10 v -10" style="fill:#4b692f;fill-opacity:1;fill-rule:nonzero;stroke:none" id="path338"/><path d="m 950,250 h 10 v 10 h -10 v -10" style="fill:#4b692f;fill-opacity:1;fill-rule:nonzero;stroke:none" id="path340"/><path d="m 900,250 h 10 v 10 h -10 v -10" style="fill:#4b692f;fill-opacity:1;fill-rule:nonzero;stroke:none" id="path342"/><path d="m 870,260 v 10 h -10 v -10 h -20 v -10 h 30 v -10 h 10 v 10 h 10 v 10 h -20" style="fill:#4b692f;fill-opacity:1;fill-rule:nonzero;stroke:none" id="path344"/><path d="m 720,250 h 10 v 10 h -10 v -10" style="fill:#4b692f;fill-opacity:1;fill-rule:nonzero;stroke:none" id="path346"/><path d="m 700,260 v -10 h 10 v 10 h -10" style="fill:#4b692f;fill-opacity:1;fill-rule:nonzero;stroke:none" id="path348"/><path d="m 670,250 h 10 v 10 h -10 v -10" style="fill:#4b692f;fill-opacity:1;fill-rule:nonzero;stroke:none" id="path350"/><path d="m 930,270 v 10 h -10 v -10 h -10 v -10 h 20 v -10 h 10 v 10 h 10 v 10 h -20" style="fill:#4b692f;fill-opacity:1;fill-rule:nonzero;stroke:none" id="path352"/><path d="m 890,270 v -10 h 10 v 10 h -10" style="fill:#4b692f;fill-opacity:1;fill-rule:nonzero;stroke:none" id="path354"/><path d="m 820,270 v -10 h 20 v 10 h -20" style="fill:#4b692f;fill-opacity:1;fill-rule:nonzero;stroke:none" id="path356"/><path d="m 790,270 v -10 h 10 v -10 h 10 v 20 h -20" style="fill:#4b692f;fill-opacity:1;fill-rule:nonzero;stroke:none" id="path358"/><path d="m 740,270 v 10 h -10 v -20 h 50 v 10 h -40" style="fill:#4b692f;fill-opacity:1;fill-rule:nonzero;stroke:none" id="path360"/><path d="m 680,270 v -10 h 20 v 10 h -20" style="fill:#4b692f;fill-opacity:1;fill-rule:nonzero;stroke:none" id="path362"/><path d="m 660,270 v -10 h 10 v 10 h -10" style="fill:#4b692f;fill-opacity:1;fill-rule:nonzero;stroke:none" id="path364"/><path d="m 640,260 h 10 v 10 h -10 v -10" style="fill:#4b692f;fill-opacity:1;fill-rule:nonzero;stroke:none" id="path366"/><path d="m 880,280 h -10 v -10 h 10 v 10" style="fill:#4b692f;fill-opacity:1;fill-rule:nonzero;stroke:none" id="path368"/><path d="m 810,280 v -10 h 10 v 10 h -10" style="fill:#4b692f;fill-opacity:1;fill-rule:nonzero;stroke:none" id="path370"/><path d="m 780,280 v -10 h 10 v 10 h -10" style="fill:#4b692f;fill-opacity:1;fill-rule:nonzero;stroke:none" id="path372"/><path d="m 650,280 v -10 h 10 v 10 h -10" style="fill:#4b692f;fill-opacity:1;fill-rule:nonzero;stroke:none" id="path374"/><path d="m 720,290 v -10 h 10 v 10 h -10" style="fill:#4b692f;fill-opacity:1;fill-rule:nonzero;stroke:none" id="path376"/><path d="m 920,190 v -20 h -10 v 10 h -10 v 20 h 10 v -10 z m 30,-30 h -10 v -10 h -10 v 10 h 10 v 10 h 10 z m -300,0 h 10 v -10 h -10 z m 20,30 h 10 v 10 h 20 v -10 h -10 v -10 h -20 z m 60,0 v -10 h -10 v -10 h -20 v 10 h 10 v 10 z m 20,10 v 10 h 20 v -20 h -10 v -10 h -10 v 10 h -10 v 10 z m 50,0 v -20 h 10 v -10 h -10 v 10 h -20 v 10 h 10 v 10 z m 60,-20 v 10 h 20 v -10 h -10 v -10 h -20 v 10 z m 40,-30 h -10 v -10 h -10 v 20 h 10 v 10 h 10 z m -70,10 h 10 v -10 h -10 z m -50,10 v -10 h 10 v -10 h -10 v 10 h -20 v 10 z m -50,0 h 10 v -10 h -10 v -10 h -10 v 10 h 10 z m -60,0 h 10 v -10 h -10 z m 250,40 h -30 v 10 h -10 v -10 h -10 v -10 h -10 v 20 h -10 v -30 h -30 v 10 h -10 v 10 h -20 v 10 h -10 v 10 h -10 v -10 h -20 v 20 h -10 v -20 h -10 v -20 h -20 v 10 h -10 v 10 h -10 v -10 h -20 v 20 h -10 v -20 h -10 v -10 h -10 v -10 h 20 V 180 H 640 V 0 h 320 v 200 h -10 v -10 h -20 v 10 h -10 v 10" style="fill:#663931;fill-opacity:1;fill-rule:nonzero;stroke:none" id="path378"/><path d="m 930,200 h 10 v 10 h 10 v 10 h -10 v 10 h -10 v -30" style="fill:#663931;fill-opacity:1;fill-rule:nonzero;stroke:none" id="path380"/><path d="m 810,210 h 30 v 10 h -20 v 10 h -10 v -20" style="fill:#663931;fill-opacity:1;fill-rule:nonzero;stroke:none" id="path382"/><path d="m 960,230 h -10 v -10 h 10 v 10" style="fill:#663931;fill-opacity:1;fill-rule:nonzero;stroke:none" id="path384"/><path d="m 910,220 v 10 h -20 v -10 h 20" style="fill:#663931;fill-opacity:1;fill-rule:nonzero;stroke:none" id="path386"/><path d="m 650,230 h -10 v -20 h 10 v 20" style="fill:#663931;fill-opacity:1;fill-rule:nonzero;stroke:none" id="path388"/><path d="m 780,230 h 10 v 10 h -10 v -10" style="fill:#663931;fill-opacity:1;fill-rule:nonzero;stroke:none" id="path390"/><path d="m 660,240 h -10 v -10 h 10 v 10" style="fill:#663931;fill-opacity:1;fill-rule:nonzero;stroke:none" id="path392"/><path d="m 950,260 h -10 v -10 h -10 v 10 h -20 v -10 h -10 v 10 h -10 v -10 h -10 v -10 h -10 v 10 h -30 v 10 h -20 v 10 h -10 v -20 h -10 v 10 h -10 v 10 h -10 v -10 h -50 v -10 h -10 v -10 h -10 v 10 h -10 v 10 h -20 v -10 h -10 v 10 h -10 v 10 h -10 v -10 h -10 v -10 h 20 v -10 h 40 v -20 h 10 v 10 h 20 v 10 h 10 v 10 h 50 v -10 h 10 v -10 h 10 v 10 h 10 v 10 h 10 v -10 h 10 v -20 h 10 v 20 h 10 v -10 h 30 v 10 h 20 v -10 h 20 v 10 h 30 v 10 h -10 v 10" style="fill:#663931;fill-opacity:1;fill-rule:nonzero;stroke:none" id="path394"/><path d="m 940,160 h -10 v -10 h 10 v 10" style="fill:#8f563b;fill-opacity:1;fill-rule:nonzero;stroke:none" id="path396"/><path d="m 880,140 h 10 v 10 h 10 v 20 h -10 v -10 h -10 v -20" style="fill:#8f563b;fill-opacity:1;fill-rule:nonzero;stroke:none" id="path398"/><path d="m 840,160 h -10 v -10 h 10 v 10" style="fill:#8f563b;fill-opacity:1;fill-rule:nonzero;stroke:none" id="path400"/><path d="m 790,150 v 10 h -10 v -10 h 10" style="fill:#8f563b;fill-opacity:1;fill-rule:nonzero;stroke:none" id="path402"/><path d="m 720,150 h 10 v 10 h -10 v -10" style="fill:#8f563b;fill-opacity:1;fill-rule:nonzero;stroke:none" id="path404"/><path d="m 650,150 h 10 v 10 h -10 v -10" style="fill:#8f563b;fill-opacity:1;fill-rule:nonzero;stroke:none" id="path406"/><path d="m 950,170 h -10 v -10 h 10 v 10" style="fill:#8f563b;fill-opacity:1;fill-rule:nonzero;stroke:none" id="path408"/><path d="m 760,170 v -10 h 20 v 10 h -20" style="fill:#8f563b;fill-opacity:1;fill-rule:nonzero;stroke:none" id="path410"/><path d="m 730,160 h 10 v 10 h -10 v -10" style="fill:#8f563b;fill-opacity:1;fill-rule:nonzero;stroke:none" id="path412"/><path d="m 670,160 h 10 v 10 h -10 v -10" style="fill:#8f563b;fill-opacity:1;fill-rule:nonzero;stroke:none" id="path414"/><path d="m 810,170 v 10 h -10 v -10 h 10" style="fill:#8f563b;fill-opacity:1;fill-rule:nonzero;stroke:none" id="path416"/><path d="m 860,190 v -10 h -10 v -10 h 20 v 10 h 10 v 10 h -20" style="fill:#8f563b;fill-opacity:1;fill-rule:nonzero;stroke:none" id="path418"/><path d="m 710,190 v -10 h -10 v -10 h 20 v 10 h 10 v 10 h -20" style="fill:#8f563b;fill-opacity:1;fill-rule:nonzero;stroke:none" id="path420"/><path d="m 660,180 v 10 h -20 v -10 h 20" style="fill:#8f563b;fill-opacity:1;fill-rule:nonzero;stroke:none" id="path422"/><path d="m 900,200 v -20 h 10 v -10 h 10 v 20 h -10 v 10 h -10" style="fill:#8f563b;fill-opacity:1;fill-rule:nonzero;stroke:none" id="path424"/><path d="m 800,200 h -10 v -10 h -10 v -10 h 20 v 20" style="fill:#8f563b;fill-opacity:1;fill-rule:nonzero;stroke:none" id="path426"/><path d="m 680,200 v -10 h -10 v -10 h 20 v 10 h 10 v 10 h -20" style="fill:#8f563b;fill-opacity:1;fill-rule:nonzero;stroke:none" id="path428"/><path d="m 940,210 v -10 h -10 v -10 h 20 v 10 h 10 v 20 h -10 v -10 h -10" style="fill:#8f563b;fill-opacity:1;fill-rule:nonzero;stroke:none" id="path430"/><path d="m 750,210 v -10 h -10 v -10 h 10 v -10 h 10 v 10 h 10 v 20 h -20" style="fill:#8f563b;fill-opacity:1;fill-rule:nonzero;stroke:none" id="path432"/><path d="m 640,200 h 10 v 10 h -10 v -10" style="fill:#8f563b;fill-opacity:1;fill-rule:nonzero;stroke:none" id="path434"/><path d="m 930,230 h -20 v -10 h -20 v -10 h 30 v -10 h 10 v 30" style="fill:#8f563b;fill-opacity:1;fill-rule:nonzero;stroke:none" id="path436"/><path d="m 840,210 h -30 v -10 h 10 v -10 h 30 v 30 h -10 v -10" style="fill:#8f563b;fill-opacity:1;fill-rule:nonzero;stroke:none" id="path438"/><path d="m 860,230 v 10 h -10 v -20 h 10 v -20 h 10 v 10 h 10 v 10 h 10 v 10 h -30" style="fill:#8f563b;fill-opacity:1;fill-rule:nonzero;stroke:none" id="path440"/><path d="m 820,220 h 20 v 20 h -10 v 10 h -10 v -10 h -10 v -10 h 10 v -10" style="fill:#8f563b;fill-opacity:1;fill-rule:nonzero;stroke:none" id="path442"/><path d="m 810,230 h -10 v 10 h -10 v -10 h -10 v -10 h 10 v -10 h 20 v 20" style="fill:#8f563b;fill-opacity:1;fill-rule:nonzero;stroke:none" id="path444"/><path d="m 650,210 h 10 v 20 h -10 v -20" style="fill:#8f563b;fill-opacity:1;fill-rule:nonzero;stroke:none" id="path446"/><path d="m 930,240 v -10 h 10 v -10 h 10 v 10 h 10 v 10 h -30" style="fill:#8f563b;fill-opacity:1;fill-rule:nonzero;stroke:none" id="path448"/><path d="m 910,230 v 10 h -20 v -10 h 20" style="fill:#8f563b;fill-opacity:1;fill-rule:nonzero;stroke:none" id="path450"/><path d="m 730,230 h -20 v -10 h -10 v -10 h 10 v -10 h 20 v 20 h 10 v 20 h -10 v -10" style="fill:#8f563b;fill-opacity:1;fill-rule:nonzero;stroke:none" id="path452"/><path d="m 700,240 h -40 v -10 h 10 v -20 h 20 v 10 h 10 v 20" style="fill:#8f563b;fill-opacity:1;fill-rule:nonzero;stroke:none" id="path454"/><path d="m 790,240 v 10 h -50 v -10 h 10 v -20 h 20 v 10 h 10 v 10 h 10" style="fill:#8f563b;fill-opacity:1;fill-rule:nonzero;stroke:none" id="path456"/><path d="m 660,240 v 10 h -20 v -20 h 10 v 10 h 10" style="fill:#8f563b;fill-opacity:1;fill-rule:nonzero;stroke:none" id="path458"/><path d="m 1010,280 h 10 v 10 h -10 v -10" style="fill:#99e550;fill-opacity:1;fill-rule:nonzero;stroke:none" id="path460"/><path d="m 960,320 v -20 h 10 v -10 h 20 v 10 h -10 v 10 h 20 v -10 h 20 v -10 h 10 v 10 h 10 v 10 h 10 v -10 h 10 v -10 h 20 v 10 h -10 v 10 h 20 v -10 h 20 v -10 h 20 v 10 h -10 v 10 h 10 v -10 h 10 v -10 h 10 v 10 h 10 v -20 h 10 v 10 h 10 v 10 h -10 v 10 h 20 v -10 h 10 v -10 h 10 v 20 h 10 v -10 h 20 v -10 h 20 v 10 h -10 v 10 h 20 v -10 h 10 v 20 H 960" style="fill:#99e550;fill-opacity:1;fill-rule:nonzero;stroke:none" id="path462"/><path d="m 1270,310 h -20 v -10 h 10 v -10 h -20 v 10 h -20 v 10 h -10 v -20 h -10 v 10 h -10 v 10 h -20 v -10 h 10 v -10 h -10 v -10 h -10 v 20 h -10 v -10 h -10 v 10 h -10 v -10 h -20 v 10 h -20 v 10 h -20 v -10 h 10 v -10 h -20 v 10 h -10 v 10 h -10 v -10 h -10 v -10 h -10 v -10 h -10 v 10 h 10 v 10 h -20 v 10 h -20 v -10 h 10 v -10 h -20 v 10 h -10 v -30 h 10 v 10 h 10 v -10 h 10 v -10 h 10 v 10 h 20 v -10 h 10 v -10 h 10 v 10 h 10 v 20 h -10 v 10 h 10 v -10 h 10 v -10 h 40 v 10 h 10 v -10 h 20 v 10 h 10 v -10 h 20 v -10 h 20 v 10 h 10 v 10 h 10 v -10 h -10 v -10 h 20 v 10 h 10 v -10 h 10 v 10 h 10 v 10 h 10 v -10 h 20 v -10 h 10 v 40 h -10 v 10" style="fill:#6abe30;fill-opacity:1;fill-rule:nonzero;stroke:none" id="path464"/><path d="m 1120,310 v -10 h 10 v 10 h -10" style="fill:#6abe30;fill-opacity:1;fill-rule:nonzero;stroke:none" id="path466"/><path d="m 1030,240 h 10 v 10 h -10 v -10" style="fill:#4b692f;fill-opacity:1;fill-rule:nonzero;stroke:none" id="path468"/><path d="m 1270,250 h 10 v 10 h -10 v -10" style="fill:#4b692f;fill-opacity:1;fill-rule:nonzero;stroke:none" id="path470"/><path d="m 1220,250 h 10 v 10 h -10 v -10" style="fill:#4b692f;fill-opacity:1;fill-rule:nonzero;stroke:none" id="path472"/><path d="m 1190,260 v 10 h -10 v -10 h -20 v -10 h 30 v -10 h 10 v 10 h 10 v 10 h -20" style="fill:#4b692f;fill-opacity:1;fill-rule:nonzero;stroke:none" id="path474"/><path d="m 1040,250 h 10 v 10 h -10 v -10" style="fill:#4b692f;fill-opacity:1;fill-rule:nonzero;stroke:none" id="path476"/><path d="m 1020,260 v -10 h 10 v 10 h -10" style="fill:#4b692f;fill-opacity:1;fill-rule:nonzero;stroke:none" id="path478"/><path d="m 990,250 h 10 v 10 h -10 v -10" style="fill:#4b692f;fill-opacity:1;fill-rule:nonzero;stroke:none" id="path480"/><path d="m 1250,270 v 10 h -10 v -10 h -10 v -10 h 20 v -10 h 10 v 10 h 10 v 10 h -20" style="fill:#4b692f;fill-opacity:1;fill-rule:nonzero;stroke:none" id="path482"/><path d="m 1210,270 v -10 h 10 v 10 h -10" style="fill:#4b692f;fill-opacity:1;fill-rule:nonzero;stroke:none" id="path484"/><path d="m 1140,270 v -10 h 20 v 10 h -20" style="fill:#4b692f;fill-opacity:1;fill-rule:nonzero;stroke:none" id="path486"/><path d="m 1110,270 v -10 h 10 v -10 h 10 v 20 h -20" style="fill:#4b692f;fill-opacity:1;fill-rule:nonzero;stroke:none" id="path488"/><path d="m 1060,270 v 10 h -10 v -20 h 50 v 10 h -40" style="fill:#4b692f;fill-opacity:1;fill-rule:nonzero;stroke:none" id="path490"/><path d="m 1000,270 v -10 h 20 v 10 h -20" style="fill:#4b692f;fill-opacity:1;fill-rule:nonzero;stroke:none" id="path492"/><path d="m 980,270 v -10 h 10 v 10 h -10" style="fill:#4b692f;fill-opacity:1;fill-rule:nonzero;stroke:none" id="path494"/><path d="m 960,260 h 10 v 10 h -10 v -10" style="fill:#4b692f;fill-opacity:1;fill-rule:nonzero;stroke:none" id="path496"/><path d="m 1200,280 h -10 v -10 h 10 v 10" style="fill:#4b692f;fill-opacity:1;fill-rule:nonzero;stroke:none" id="path498"/><path d="m 1130,280 v -10 h 10 v 10 h -10" style="fill:#4b692f;fill-opacity:1;fill-rule:nonzero;stroke:none" id="path500"/><path d="m 1100,280 v -10 h 10 v 10 h -10" style="fill:#4b692f;fill-opacity:1;fill-rule:nonzero;stroke:none" id="path502"/><path d="m 970,280 v -10 h 10 v 10 h -10" style="fill:#4b692f;fill-opacity:1;fill-rule:nonzero;stroke:none" id="path504"/><path d="m 1040,290 v -10 h 10 v 10 h -10" style="fill:#4b692f;fill-opacity:1;fill-rule:nonzero;stroke:none" id="path506"/><path d="m 1240,190 v -20 h -10 v 10 h -10 v 20 h 10 v -10 z m 30,-30 h -10 v -10 h -10 v 10 h 10 v 10 h 10 z m -300,0 h 10 v -10 h -10 z m 20,30 h 10 v 10 h 20 v -10 h -10 v -10 h -20 z m 60,0 v -10 h -10 v -10 h -20 v 10 h 10 v 10 z m 20,10 v 10 h 20 v -20 h -10 v -10 h -10 v 10 h -10 v 10 z m 50,0 v -20 h 10 v -10 h -10 v 10 h -20 v 10 h 10 v 10 z m 60,-20 v 10 h 20 v -10 h -10 v -10 h -20 v 10 z m 40,-30 h -10 v -10 h -10 v 20 h 10 v 10 h 10 z m -70,10 h 10 v -10 h -10 z m -50,10 v -10 h 10 v -10 h -10 v 10 h -20 v 10 z m -50,0 h 10 v -10 h -10 v -10 h -10 v 10 h 10 z m -60,0 h 10 v -10 h -10 z m 250,40 h -30 v 10 h -10 v -10 h -10 v -10 h -10 v 20 h -10 v -30 h -30 v 10 h -10 v 10 h -20 v 10 h -10 v 10 h -10 v -10 h -20 v 20 h -10 v -20 h -10 v -20 h -20 v 10 h -10 v 10 h -10 v -10 h -20 v 20 h -10 v -20 h -10 v -10 h -10 v -10 h 20 V 180 H 960 V 0 h 320 v 200 h -10 v -10 h -20 v 10 h -10 v 10" style="fill:#663931;fill-opacity:1;fill-rule:nonzero;stroke:none" id="path508"/><path d="m 1250,200 h 10 v 10 h 10 v 10 h -10 v 10 h -10 v -30" style="fill:#663931;fill-opacity:1;fill-rule:nonzero;stroke:none" id="path510"/><path d="m 1130,210 h 30 v 10 h -20 v 10 h -10 v -20" style="fill:#663931;fill-opacity:1;fill-rule:nonzero;stroke:none" id="path512"/><path d="m 1280,230 h -10 v -10 h 10 v 10" style="fill:#663931;fill-opacity:1;fill-rule:nonzero;stroke:none" id="path514"/><path d="m 1230,220 v 10 h -20 v -10 h 20" style="fill:#663931;fill-opacity:1;fill-rule:nonzero;stroke:none" id="path516"/><path d="m 970,230 h -10 v -20 h 10 v 20" style="fill:#663931;fill-opacity:1;fill-rule:nonzero;stroke:none" id="path518"/><path d="m 1100,230 h 10 v 10 h -10 v -10" style="fill:#663931;fill-opacity:1;fill-rule:nonzero;stroke:none" id="path520"/><path d="m 980,240 h -10 v -10 h 10 v 10" style="fill:#663931;fill-opacity:1;fill-rule:nonzero;stroke:none" id="path522"/><path d="m 1270,260 h -10 v -10 h -10 v 10 h -20 v -10 h -10 v 10 h -10 v -10 h -10 v -10 h -10 v 10 h -30 v 10 h -20 v 10 h -10 v -20 h -10 v 10 h -10 v 10 h -10 v -10 h -50 v -10 h -10 v -10 h -10 v 10 h -10 v 10 h -20 v -10 h -10 v 10 h -10 v 10 h -10 v -10 h -10 v -10 h 20 v -10 h 40 v -20 h 10 v 10 h 20 v 10 h 10 v 10 h 50 v -10 h 10 v -10 h 10 v 10 h 10 v 10 h 10 v -10 h 10 v -20 h 10 v 20 h 10 v -10 h 30 v 10 h 20 v -10 h 20 v 10 h 30 v 10 h -10 v 10" style="fill:#663931;fill-opacity:1;fill-rule:nonzero;stroke:none" id="path524"/><path d="m 1260,160 h -10 v -10 h 10 v 10" style="fill:#8f563b;fill-opacity:1;fill-rule:nonzero;stroke:none" id="path526"/><path d="m 1200,140 h 10 v 10 h 10 v 20 h -10 v -10 h -10 v -20" style="fill:#8f563b;fill-opacity:1;fill-rule:nonzero;stroke:none" id="path528"/><path d="m 1160,160 h -10 v -10 h 10 v 10" style="fill:#8f563b;fill-opacity:1;fill-rule:nonzero;stroke:none" id="path530"/><path d="m 1110,150 v 10 h -10 v -10 h 10" style="fill:#8f563b;fill-opacity:1;fill-rule:nonzero;stroke:none" id="path532"/><path d="m 1040,150 h 10 v 10 h -10 v -10" style="fill:#8f563b;fill-opacity:1;fill-rule:nonzero;stroke:none" id="path534"/><path d="m 970,150 h 10 v 10 h -10 v -10" style="fill:#8f563b;fill-opacity:1;fill-rule:nonzero;stroke:none" id="path536"/><path d="m 1270,170 h -10 v -10 h 10 v 10" style="fill:#8f563b;fill-opacity:1;fill-rule:nonzero;stroke:none" id="path538"/><path d="m 1080,170 v -10 h 20 v 10 h -20" style="fill:#8f563b;fill-opacity:1;fill-rule:nonzero;stroke:none" id="path540"/><path d="m 1050,160 h 10 v 10 h -10 v -10" style="fill:#8f563b;fill-opacity:1;fill-rule:nonzero;stroke:none" id="path542"/><path d="m 990,160 h 10 v 10 h -10 v -10" style="fill:#8f563b;fill-opacity:1;fill-rule:nonzero;stroke:none" id="path544"/><path d="m 1130,170 v 10 h -10 v -10 h 10" style="fill:#8f563b;fill-opacity:1;fill-rule:nonzero;stroke:none" id="path546"/><path d="m 1180,190 v -10 h -10 v -10 h 20 v 10 h 10 v 10 h -20" style="fill:#8f563b;fill-opacity:1;fill-rule:nonzero;stroke:none" id="path548"/><path d="m 1030,190 v -10 h -10 v -10 h 20 v 10 h 10 v 10 h -20" style="fill:#8f563b;fill-opacity:1;fill-rule:nonzero;stroke:none" id="path550"/><path d="m 980,180 v 10 h -20 v -10 h 20" style="fill:#8f563b;fill-opacity:1;fill-rule:nonzero;stroke:none" id="path552"/><path d="m 1220,200 v -20 h 10 v -10 h 10 v 20 h -10 v 10 h -10" style="fill:#8f563b;fill-opacity:1;fill-rule:nonzero;stroke:none" id="path554"/><path d="m 1120,200 h -10 v -10 h -10 v -10 h 20 v 20" style="fill:#8f563b;fill-opacity:1;fill-rule:nonzero;stroke:none" id="path556"/><path d="m 1000,200 v -10 h -10 v -10 h 20 v 10 h 10 v 10 h -20" style="fill:#8f563b;fill-opacity:1;fill-rule:nonzero;stroke:none" id="path558"/><path d="m 1260,210 v -10 h -10 v -10 h 20 v 10 h 10 v 20 h -10 v -10 h -10" style="fill:#8f563b;fill-opacity:1;fill-rule:nonzero;stroke:none" id="path560"/><path d="m 1070,210 v -10 h -10 v -10 h 10 v -10 h 10 v 10 h 10 v 20 h -20" style="fill:#8f563b;fill-opacity:1;fill-rule:nonzero;stroke:none" id="path562"/><path d="m 960,200 h 10 v 10 h -10 v -10" style="fill:#8f563b;fill-opacity:1;fill-rule:nonzero;stroke:none" id="path564"/><path d="m 1250,230 h -20 v -10 h -20 v -10 h 30 v -10 h 10 v 30" style="fill:#8f563b;fill-opacity:1;fill-rule:nonzero;stroke:none" id="path566"/><path d="m 1160,210 h -30 v -10 h 10 v -10 h 30 v 30 h -10 v -10" style="fill:#8f563b;fill-opacity:1;fill-rule:nonzero;stroke:none" id="path568"/><path d="m 1180,230 v 10 h -10 v -20 h 10 v -20 h 10 v 10 h 10 v 10 h 10 v 10 h -30" style="fill:#8f563b;fill-opacity:1;fill-rule:nonzero;stroke:none" id="path570"/><path d="m 1140,220 h 20 v 20 h -10 v 10 h -10 v -10 h -10 v -10 h 10 v -10" style="fill:#8f563b;fill-opacity:1;fill-rule:nonzero;stroke:none" id="path572"/><path d="m 1130,230 h -10 v 10 h -10 v -10 h -10 v -10 h 10 v -10 h 20 v 20" style="fill:#8f563b;fill-opacity:1;fill-rule:nonzero;stroke:none" id="path574"/><path d="m 970,210 h 10 v 20 h -10 v -20" style="fill:#8f563b;fill-opacity:1;fill-rule:nonzero;stroke:none" id="path576"/><path d="m 1250,240 v -10 h 10 v -10 h 10 v 10 h 10 v 10 h -30" style="fill:#8f563b;fill-opacity:1;fill-rule:nonzero;stroke:none" id="path578"/><path d="m 1230,230 v 10 h -20 v -10 h 20" style="fill:#8f563b;fill-opacity:1;fill-rule:nonzero;stroke:none" id="path580"/><path d="m 1050,230 h -20 v -10 h -10 v -10 h 10 v -10 h 20 v 20 h 10 v 20 h -10 v -10" style="fill:#8f563b;fill-opacity:1;fill-rule:nonzero;stroke:none" id="path582"/><path d="m 1020,240 h -40 v -10 h 10 v -20 h 20 v 10 h 10 v 20" style="fill:#8f563b;fill-opacity:1;fill-rule:nonzero;stroke:none" id="path584"/><path d="m 1110,240 v 10 h -50 v -10 h 10 v -20 h 20 v 10 h 10 v 10 h 10" style="fill:#8f563b;fill-opacity:1;fill-rule:nonzero;stroke:none" id="path586"/><path d="m 980,240 v 10 h -20 v -20 h 10 v 10 h 10" style="fill:#8f563b;fill-opacity:1;fill-rule:nonzero;stroke:none" id="path588"/><path d="m 1330,280 h 10 v 10 h -10 v -10" style="fill:#99e550;fill-opacity:1;fill-rule:nonzero;stroke:none" id="path590"/><path d="m 1280,320 v -20 h 10 v -10 h 20 v 10 h -10 v 10 h 20 v -10 h 20 v -10 h 10 v 10 h 10 v 10 h 10 v -10 h 10 v -10 h 20 v 10 h -10 v 10 h 20 v -10 h 20 v -10 h 20 v 10 h -10 v 10 h 10 v -10 h 10 v -10 h 10 v 10 h 10 v -20 h 10 v 10 h 10 v 10 h -10 v 10 h 20 v -10 h 10 v -10 h 10 v 20 h 10 v -10 h 20 v -10 h 20 v 10 h -10 v 10 h 20 v -10 h 10 v 20 h -320" style="fill:#99e550;fill-opacity:1;fill-rule:nonzero;stroke:none" id="path592"/><path d="m 1590,310 h -20 v -10 h 10 v -10 h -20 v 10 h -20 v 10 h -10 v -20 h -10 v 10 h -10 v 10 h -20 v -10 h 10 v -10 h -10 v -10 h -10 v 20 h -10 v -10 h -10 v 10 h -10 v -10 h -20 v 10 h -20 v 10 h -20 v -10 h 10 v -10 h -20 v 10 h -10 v 10 h -10 v -10 h -10 v -10 h -10 v -10 h -10 v 10 h 10 v 10 h -20 v 10 h -20 v -10 h 10 v -10 h -20 v 10 h -10 v -30 h 10 v 10 h 10 v -10 h 10 v -10 h 10 v 10 h 20 v -10 h 10 v -10 h 10 v 10 h 10 v 20 h -10 v 10 h 10 v -10 h 10 v -10 h 40 v 10 h 10 v -10 h 20 v 10 h 10 v -10 h 20 v -10 h 20 v 10 h 10 v 10 h 10 v -10 h -10 v -10 h 20 v 10 h 10 v -10 h 10 v 10 h 10 v 10 h 10 v -10 h 20 v -10 h 10 v 40 h -10 v 10" style="fill:#6abe30;fill-opacity:1;fill-rule:nonzero;stroke:none" id="path594"/><path d="m 1440,310 v -10 h 10 v 10 h -10" style="fill:#6abe30;fill-opacity:1;fill-rule:nonzero;stroke:none" id="path596"/><path d="m 1350,240 h 10 v 10 h -10 v -10" style="fill:#4b692f;fill-opacity:1;fill-rule:nonzero;stroke:none" id="path598"/><path d="m 1590,250 h 10 v 10 h -10 v -10" style="fill:#4b692f;fill-opacity:1;fill-rule:nonzero;stroke:none" id="path600"/><path d="m 1540,250 h 10 v 10 h -10 v -10" style="fill:#4b692f;fill-opacity:1;fill-rule:nonzero;stroke:none" id="path602"/><path d="m 1510,260 v 10 h -10 v -10 h -20 v -10 h 30 v -10 h 10 v 10 h 10 v 10 h -20" style="fill:#4b692f;fill-opacity:1;fill-rule:nonzero;stroke:none" id="path604"/><path d="m 1360,250 h 10 v 10 h -10 v -10" style="fill:#4b692f;fill-opacity:1;fill-rule:nonzero;stroke:none" id="path606"/><path d="m 1340,260 v -10 h 10 v 10 h -10" style="fill:#4b692f;fill-opacity:1;fill-rule:nonzero;stroke:none" id="path608"/><path d="m 1310,250 h 10 v 10 h -10 v -10" style="fill:#4b692f;fill-opacity:1;fill-rule:nonzero;stroke:none" id="path610"/><path d="m 1570,270 v 10 h -10 v -10 h -10 v -10 h 20 v -10 h 10 v 10 h 10 v 10 h -20" style="fill:#4b692f;fill-opacity:1;fill-rule:nonzero;stroke:none" id="path612"/><path d="m 1530,270 v -10 h 10 v 10 h -10" style="fill:#4b692f;fill-opacity:1;fill-rule:nonzero;stroke:none" id="path614"/><path d="m 1460,270 v -10 h 20 v 10 h -20" style="fill:#4b692f;fill-opacity:1;fill-rule:nonzero;stroke:none" id="path616"/><path d="m 1430,270 v -10 h 10 v -10 h 10 v 20 h -20" style="fill:#4b692f;fill-opacity:1;fill-rule:nonzero;stroke:none" id="path618"/><path d="m 1380,270 v 10 h -10 v -20 h 50 v 10 h -40" style="fill:#4b692f;fill-opacity:1;fill-rule:nonzero;stroke:none" id="path620"/><path d="m 1320,270 v -10 h 20 v 10 h -20" style="fill:#4b692f;fill-opacity:1;fill-rule:nonzero;stroke:none" id="path622"/><path d="m 1300,270 v -10 h 10 v 10 h -10" style="fill:#4b692f;fill-opacity:1;fill-rule:nonzero;stroke:none" id="path624"/><path d="m 1280,260 h 10 v 10 h -10 v -10" style="fill:#4b692f;fill-opacity:1;fill-rule:nonzero;stroke:none" id="path626"/><path d="m 1520,280 h -10 v -10 h 10 v 10" style="fill:#4b692f;fill-opacity:1;fill-rule:nonzero;stroke:none" id="path628"/><path d="m 1450,280 v -10 h 10 v 10 h -10" style="fill:#4b692f;fill-opacity:1;fill-rule:nonzero;stroke:none" id="path630"/><path d="m 1420,280 v -10 h 10 v 10 h -10" style="fill:#4b692f;fill-opacity:1;fill-rule:nonzero;stroke:none" id="path632"/><path d="m 1290,280 v -10 h 10 v 10 h -10" style="fill:#4b692f;fill-opacity:1;fill-rule:nonzero;stroke:none" id="path634"/><path d="m 1360,290 v -10 h 10 v 10 h -10" style="fill:#4b692f;fill-opacity:1;fill-rule:nonzero;stroke:none" id="path636"/><path d="m 1560,190 v -20 h -10 v 10 h -10 v 20 h 10 v -10 z m 30,-30 h -10 v -10 h -10 v 10 h 10 v 10 h 10 z m -300,0 h 10 v -10 h -10 z m 20,30 h 10 v 10 h 20 v -10 h -10 v -10 h -20 z m 60,0 v -10 h -10 v -10 h -20 v 10 h 10 v 10 z m 20,10 v 10 h 20 v -20 h -10 v -10 h -10 v 10 h -10 v 10 z m 50,0 v -20 h 10 v -10 h -10 v 10 h -20 v 10 h 10 v 10 z m 60,-20 v 10 h 20 v -10 h -10 v -10 h -20 v 10 z m 40,-30 h -10 v -10 h -10 v 20 h 10 v 10 h 10 z m -70,10 h 10 v -10 h -10 z m -50,10 v -10 h 10 v -10 h -10 v 10 h -20 v 10 z m -50,0 h 10 v -10 h -10 v -10 h -10 v 10 h 10 z m -60,0 h 10 v -10 h -10 z m 250,40 h -30 v 10 h -10 v -10 h -10 v -10 h -10 v 20 h -10 v -30 h -30 v 10 h -10 v 10 h -20 v 10 h -10 v 10 h -10 v -10 h -20 v 20 h -10 v -20 h -10 v -20 h -20 v 10 h -10 v 10 h -10 v -10 h -20 v 20 h -10 v -20 h -10 v -10 h -10 v -10 h 20 v -10 h -20 V 0 h 320 v 200 h -10 v -10 h -20 v 10 h -10 v 10" style="fill:#663931;fill-opacity:1;fill-rule:nonzero;stroke:none" id="path638"/><path d="m 1570,200 h 10 v 10 h 10 v 10 h -10 v 10 h -10 v -30" style="fill:#663931;fill-opacity:1;fill-rule:nonzero;stroke:none" id="path640"/><path d="m 1450,210 h 30 v 10 h -20 v 10 h -10 v -20" style="fill:#663931;fill-opacity:1;fill-rule:nonzero;stroke:none" id="path642"/><path d="m 1600,230 h -10 v -10 h 10 v 10" style="fill:#663931;fill-opacity:1;fill-rule:nonzero;stroke:none" id="path644"/><path d="m 1550,220 v 10 h -20 v -10 h 20" style="fill:#663931;fill-opacity:1;fill-rule:nonzero;stroke:none" id="path646"/><path d="m 1290,230 h -10 v -20 h 10 v 20" style="fill:#663931;fill-opacity:1;fill-rule:nonzero;stroke:none" id="path648"/><path d="m 1420,230 h 10 v 10 h -10 v -10" style="fill:#663931;fill-opacity:1;fill-rule:nonzero;stroke:none" id="path650"/><path d="m 1300,240 h -10 v -10 h 10 v 10" style="fill:#663931;fill-opacity:1;fill-rule:nonzero;stroke:none" id="path652"/><path d="m 1590,260 h -10 v -10 h -10 v 10 h -20 v -10 h -10 v 10 h -10 v -10 h -10 v -10 h -10 v 10 h -30 v 10 h -20 v 10 h -10 v -20 h -10 v 10 h -10 v 10 h -10 v -10 h -50 v -10 h -10 v -10 h -10 v 10 h -10 v 10 h -20 v -10 h -10 v 10 h -10 v 10 h -10 v -10 h -10 v -10 h 20 v -10 h 40 v -20 h 10 v 10 h 20 v 10 h 10 v 10 h 50 v -10 h 10 v -10 h 10 v 10 h 10 v 10 h 10 v -10 h 10 v -20 h 10 v 20 h 10 v -10 h 30 v 10 h 20 v -10 h 20 v 10 h 30 v 10 h -10 v 10" style="fill:#663931;fill-opacity:1;fill-rule:nonzero;stroke:none" id="path654"/><path d="m 1580,160 h -10 v -10 h 10 v 10" style="fill:#8f563b;fill-opacity:1;fill-rule:nonzero;stroke:none" id="path656"/><path d="m 1520,140 h 10 v 10 h 10 v 20 h -10 v -10 h -10 v -20" style="fill:#8f563b;fill-opacity:1;fill-rule:nonzero;stroke:none" id="path658"/><path d="m 1480,160 h -10 v -10 h 10 v 10" style="fill:#8f563b;fill-opacity:1;fill-rule:nonzero;stroke:none" id="path660"/><path d="m 1430,150 v 10 h -10 v -10 h 10" style="fill:#8f563b;fill-opacity:1;fill-rule:nonzero;stroke:none" id="path662"/><path d="m 1360,150 h 10 v 10 h -10 v -10" style="fill:#8f563b;fill-opacity:1;fill-rule:nonzero;stroke:none" id="path664"/><path d="m 1290,150 h 10 v 10 h -10 v -10" style="fill:#8f563b;fill-opacity:1;fill-rule:nonzero;stroke:none" id="path666"/><path d="m 1590,170 h -10 v -10 h 10 v 10" style="fill:#8f563b;fill-opacity:1;fill-rule:nonzero;stroke:none" id="path668"/><path d="m 1400,170 v -10 h 20 v 10 h -20" style="fill:#8f563b;fill-opacity:1;fill-rule:nonzero;stroke:none" id="path670"/><path d="m 1370,160 h 10 v 10 h -10 v -10" style="fill:#8f563b;fill-opacity:1;fill-rule:nonzero;stroke:none" id="path672"/><path d="m 1310,160 h 10 v 10 h -10 v -10" style="fill:#8f563b;fill-opacity:1;fill-rule:nonzero;stroke:none" id="path674"/><path d="m 1450,170 v 10 h -10 v -10 h 10" style="fill:#8f563b;fill-opacity:1;fill-rule:nonzero;stroke:none" id="path676"/><path d="m 1500,190 v -10 h -10 v -10 h 20 v 10 h 10 v 10 h -20" style="fill:#8f563b;fill-opacity:1;fill-rule:nonzero;stroke:none" id="path678"/><path d="m 1350,190 v -10 h -10 v -10 h 20 v 10 h 10 v 10 h -20" style="fill:#8f563b;fill-opacity:1;fill-rule:nonzero;stroke:none" id="path680"/><path d="m 1300,180 v 10 h -20 v -10 h 20" style="fill:#8f563b;fill-opacity:1;fill-rule:nonzero;stroke:none" id="path682"/><path d="m 1540,200 v -20 h 10 v -10 h 10 v 20 h -10 v 10 h -10" style="fill:#8f563b;fill-opacity:1;fill-rule:nonzero;stroke:none" id="path684"/><path d="m 1440,200 h -10 v -10 h -10 v -10 h 20 v 20" style="fill:#8f563b;fill-opacity:1;fill-rule:nonzero;stroke:none" id="path686"/><path d="m 1320,200 v -10 h -10 v -10 h 20 v 10 h 10 v 10 h -20" style="fill:#8f563b;fill-opacity:1;fill-rule:nonzero;stroke:none" id="path688"/><path d="m 1580,210 v -10 h -10 v -10 h 20 v 10 h 10 v 20 h -10 v -10 h -10" style="fill:#8f563b;fill-opacity:1;fill-rule:nonzero;stroke:none" id="path690"/><path d="m 1390,210 v -10 h -10 v -10 h 10 v -10 h 10 v 10 h 10 v 20 h -20" style="fill:#8f563b;fill-opacity:1;fill-rule:nonzero;stroke:none" id="path692"/><path d="m 1280,200 h 10 v 10 h -10 v -10" style="fill:#8f563b;fill-opacity:1;fill-rule:nonzero;stroke:none" id="path694"/><path d="m 1570,230 h -20 v -10 h -20 v -10 h 30 v -10 h 10 v 30" style="fill:#8f563b;fill-opacity:1;fill-rule:nonzero;stroke:none" id="path696"/><path d="m 1480,210 h -30 v -10 h 10 v -10 h 30 v 30 h -10 v -10" style="fill:#8f563b;fill-opacity:1;fill-rule:nonzero;stroke:none" id="path698"/><path d="m 1500,230 v 10 h -10 v -20 h 10 v -20 h 10 v 10 h 10 v 10 h 10 v 10 h -30" style="fill:#8f563b;fill-opacity:1;fill-rule:nonzero;stroke:none" id="path700"/><path d="m 1460,220 h 20 v 20 h -10 v 10 h -10 v -10 h -10 v -10 h 10 v -10" style="fill:#8f563b;fill-opacity:1;fill-rule:nonzero;stroke:none" id="path702"/><path d="m 1450,230 h -10 v 10 h -10 v -10 h -10 v -10 h 10 v -10 h 20 v 20" style="fill:#8f563b;fill-opacity:1;fill-rule:nonzero;stroke:none" id="path704"/><path d="m 1290,210 h 10 v 20 h -10 v -20" style="fill:#8f563b;fill-opacity:1;fill-rule:nonzero;stroke:none" id="path706"/><path d="m 1570,240 v -10 h 10 v -10 h 10 v 10 h 10 v 10 h -30" style="fill:#8f563b;fill-opacity:1;fill-rule:nonzero;stroke:none" id="path708"/><path d="m 1550,230 v 10 h -20 v -10 h 20" style="fill:#8f563b;fill-opacity:1;fill-rule:nonzero;stroke:none" id="path710"/><path d="m 1370,230 h -20 v -10 h -10 v -10 h 10 v -10 h 20 v 20 h 10 v 20 h -10 v -10" style="fill:#8f563b;fill-opacity:1;fill-rule:nonzero;stroke:none" id="path712"/><path d="m 1340,240 h -40 v -10 h 10 v -20 h 20 v 10 h 10 v 20" style="fill:#8f563b;fill-opacity:1;fill-rule:nonzero;stroke:none" id="path714"/><path d="m 1430,240 v 10 h -50 v -10 h 10 v -20 h 20 v 10 h 10 v 10 h 10" style="fill:#8f563b;fill-opacity:1;fill-rule:nonzero;stroke:none" id="path716"/><path d="m 1300,240 v 10 h -20 v -20 h 10 v 10 h 10" style="fill:#8f563b;fill-opacity:1;fill-rule:nonzero;stroke:none" id="path718"/><path d="m 1650,280 h 10 v 10 h -10 v -10" style="fill:#99e550;fill-opacity:1;fill-rule:nonzero;stroke:none" id="path720"/><path d="m 1600,320 v -20 h 10 v -10 h 20 v 10 h -10 v 10 h 20 v -10 h 20 v -10 h 10 v 10 h 10 v 10 h 10 v -10 h 10 v -10 h 20 v 10 h -10 v 10 h 20 v -10 h 20 v -10 h 20 v 10 h -10 v 10 h 10 v -10 h 10 v -10 h 10 v 10 h 10 v -20 h 10 v 10 h 10 v 10 h -10 v 10 h 20 v -10 h 10 v -10 h 10 v 20 h 10 v -10 h 20 v -10 h 20 v 10 h -10 v 10 h 20 v -10 h 10 v 20 h -320" style="fill:#99e550;fill-opacity:1;fill-rule:nonzero;stroke:none" id="path722"/><path d="m 1910,310 h -20 v -10 h 10 v -10 h -20 v 10 h -20 v 10 h -10 v -20 h -10 v 10 h -10 v 10 h -20 v -10 h 10 v -10 h -10 v -10 h -10 v 20 h -10 v -10 h -10 v 10 h -10 v -10 h -20 v 10 h -20 v 10 h -20 v -10 h 10 v -10 h -20 v 10 h -10 v 10 h -10 v -10 h -10 v -10 h -10 v -10 h -10 v 10 h 10 v 10 h -20 v 10 h -20 v -10 h 10 v -10 h -20 v 10 h -10 v -30 h 10 v 10 h 10 v -10 h 10 v -10 h 10 v 10 h 20 v -10 h 10 v -10 h 10 v 10 h 10 v 20 h -10 v 10 h 10 v -10 h 10 v -10 h 40 v 10 h 10 v -10 h 20 v 10 h 10 v -10 h 20 v -10 h 20 v 10 h 10 v 10 h 10 v -10 h -10 v -10 h 20 v 10 h 10 v -10 h 10 v 10 h 10 v 10 h 10 v -10 h 20 v -10 h 10 v 40 h -10 v 10" style="fill:#6abe30;fill-opacity:1;fill-rule:nonzero;stroke:none" id="path724"/><path d="m 1760,310 v -10 h 10 v 10 h -10" style="fill:#6abe30;fill-opacity:1;fill-rule:nonzero;stroke:none" id="path726"/><path d="m 1670,240 h 10 v 10 h -10 v -10" style="fill:#4b692f;fill-opacity:1;fill-rule:nonzero;stroke:none" id="path728"/><path d="m 1910,250 h 10 v 10 h -10 v -10" style="fill:#4b692f;fill-opacity:1;fill-rule:nonzero;stroke:none" id="path730"/><path d="m 1860,250 h 10 v 10 h -10 v -10" style="fill:#4b692f;fill-opacity:1;fill-rule:nonzero;stroke:none" id="path732"/><path d="m 1830,260 v 10 h -10 v -10 h -20 v -10 h 30 v -10 h 10 v 10 h 10 v 10 h -20" style="fill:#4b692f;fill-opacity:1;fill-rule:nonzero;stroke:none" id="path734"/><path d="m 1680,250 h 10 v 10 h -10 v -10" style="fill:#4b692f;fill-opacity:1;fill-rule:nonzero;stroke:none" id="path736"/><path d="m 1660,260 v -10 h 10 v 10 h -10" style="fill:#4b692f;fill-opacity:1;fill-rule:nonzero;stroke:none" id="path738"/><path d="m 1630,250 h 10 v 10 h -10 v -10" style="fill:#4b692f;fill-opacity:1;fill-rule:nonzero;stroke:none" id="path740"/><path d="m 1890,270 v 10 h -10 v -10 h -10 v -10 h 20 v -10 h 10 v 10 h 10 v 10 h -20" style="fill:#4b692f;fill-opacity:1;fill-rule:nonzero;stroke:none" id="path742"/><path d="m 1850,270 v -10 h 10 v 10 h -10" style="fill:#4b692f;fill-opacity:1;fill-rule:nonzero;stroke:none" id="path744"/><path d="m 1780,270 v -10 h 20 v 10 h -20" style="fill:#4b692f;fill-opacity:1;fill-rule:nonzero;stroke:none" id="path746"/><path d="m 1750,270 v -10 h 10 v -10 h 10 v 20 h -20" style="fill:#4b692f;fill-opacity:1;fill-rule:nonzero;stroke:none" id="path748"/><path d="m 1700,270 v 10 h -10 v -20 h 50 v 10 h -40" style="fill:#4b692f;fill-opacity:1;fill-rule:nonzero;stroke:none" id="path750"/><path d="m 1640,270 v -10 h 20 v 10 h -20" style="fill:#4b692f;fill-opacity:1;fill-rule:nonzero;stroke:none" id="path752"/><path d="m 1620,270 v -10 h 10 v 10 h -10" style="fill:#4b692f;fill-opacity:1;fill-rule:nonzero;stroke:none" id="path754"/><path d="m 1600,260 h 10 v 10 h -10 v -10" style="fill:#4b692f;fill-opacity:1;fill-rule:nonzero;stroke:none" id="path756"/><path d="m 1840,280 h -10 v -10 h 10 v 10" style="fill:#4b692f;fill-opacity:1;fill-rule:nonzero;stroke:none" id="path758"/><path d="m 1770,280 v -10 h 10 v 10 h -10" style="fill:#4b692f;fill-opacity:1;fill-rule:nonzero;stroke:none" id="path760"/><path d="m 1740,280 v -10 h 10 v 10 h -10" style="fill:#4b692f;fill-opacity:1;fill-rule:nonzero;stroke:none" id="path762"/><path d="m 1610,280 v -10 h 10 v 10 h -10" style="fill:#4b692f;fill-opacity:1;fill-rule:nonzero;stroke:none" id="path764"/><path d="m 1680,290 v -10 h 10 v 10 h -10" style="fill:#4b692f;fill-opacity:1;fill-rule:nonzero;stroke:none" id="path766"/><path d="m 1880,190 v -20 h -10 v 10 h -10 v 20 h 10 v -10 z m 30,-30 h -10 v -10 h -10 v 10 h 10 v 10 h 10 z m -300,0 h 10 v -10 h -10 z m 20,30 h 10 v 10 h 20 v -10 h -10 v -10 h -20 z m 60,0 v -10 h -10 v -10 h -20 v 10 h 10 v 10 z m 20,10 v 10 h 20 v -20 h -10 v -10 h -10 v 10 h -10 v 10 z m 50,0 v -20 h 10 v -10 h -10 v 10 h -20 v 10 h 10 v 10 z m 60,-20 v 10 h 20 v -10 h -10 v -10 h -20 v 10 z m 40,-30 h -10 v -10 h -10 v 20 h 10 v 10 h 10 z m -70,10 h 10 v -10 h -10 z m -50,10 v -10 h 10 v -10 h -10 v 10 h -20 v 10 z m -50,0 h 10 v -10 h -10 v -10 h -10 v 10 h 10 z m -60,0 h 10 v -10 h -10 z m 250,40 h -30 v 10 h -10 v -10 h -10 v -10 h -10 v 20 h -10 v -30 h -30 v 10 h -10 v 10 h -20 v 10 h -10 v 10 h -10 v -10 h -20 v 20 h -10 v -20 h -10 v -20 h -20 v 10 h -10 v 10 h -10 v -10 h -20 v 20 h -10 v -20 h -10 v -10 h -10 v -10 h 20 v -10 h -20 V 0 h 320 v 200 h -10 v -10 h -20 v 10 h -10 v 10" style="fill:#663931;fill-opacity:1;fill-rule:nonzero;stroke:none" id="path768"/><path d="m 1890,200 h 10 v 10 h 10 v 10 h -10 v 10 h -10 v -30" style="fill:#663931;fill-opacity:1;fill-rule:nonzero;stroke:none" id="path770"/><path d="m 1770,210 h 30 v 10 h -20 v 10 h -10 v -20" style="fill:#663931;fill-opacity:1;fill-rule:nonzero;stroke:none" id="path772"/><path d="m 1920,230 h -10 v -10 h 10 v 10" style="fill:#663931;fill-opacity:1;fill-rule:nonzero;stroke:none" id="path774"/><path d="m 1870,220 v 10 h -20 v -10 h 20" style="fill:#663931;fill-opacity:1;fill-rule:nonzero;stroke:none" id="path776"/><path d="m 1610,230 h -10 v -20 h 10 v 20" style="fill:#663931;fill-opacity:1;fill-rule:nonzero;stroke:none" id="path778"/><path d="m 1740,230 h 10 v 10 h -10 v -10" style="fill:#663931;fill-opacity:1;fill-rule:nonzero;stroke:none" id="path780"/><path d="m 1620,240 h -10 v -10 h 10 v 10" style="fill:#663931;fill-opacity:1;fill-rule:nonzero;stroke:none" id="path782"/><path d="m 1910,260 h -10 v -10 h -10 v 10 h -20 v -10 h -10 v 10 h -10 v -10 h -10 v -10 h -10 v 10 h -30 v 10 h -20 v 10 h -10 v -20 h -10 v 10 h -10 v 10 h -10 v -10 h -50 v -10 h -10 v -10 h -10 v 10 h -10 v 10 h -20 v -10 h -10 v 10 h -10 v 10 h -10 v -10 h -10 v -10 h 20 v -10 h 40 v -20 h 10 v 10 h 20 v 10 h 10 v 10 h 50 v -10 h 10 v -10 h 10 v 10 h 10 v 10 h 10 v -10 h 10 v -20 h 10 v 20 h 10 v -10 h 30 v 10 h 20 v -10 h 20 v 10 h 30 v 10 h -10 v 10" style="fill:#663931;fill-opacity:1;fill-rule:nonzero;stroke:none" id="path784"/><path d="m 1900,160 h -10 v -10 h 10 v 10" style="fill:#8f563b;fill-opacity:1;fill-rule:nonzero;stroke:none" id="path786"/><path d="m 1840,140 h 10 v 10 h 10 v 20 h -10 v -10 h -10 v -20" style="fill:#8f563b;fill-opacity:1;fill-rule:nonzero;stroke:none" id="path788"/><path d="m 1800,160 h -10 v -10 h 10 v 10" style="fill:#8f563b;fill-opacity:1;fill-rule:nonzero;stroke:none" id="path790"/><path d="m 1750,150 v 10 h -10 v -10 h 10" style="fill:#8f563b;fill-opacity:1;fill-rule:nonzero;stroke:none" id="path792"/><path d="m 1680,150 h 10 v 10 h -10 v -10" style="fill:#8f563b;fill-opacity:1;fill-rule:nonzero;stroke:none" id="path794"/><path d="m 1610,150 h 10 v 10 h -10 v -10" style="fill:#8f563b;fill-opacity:1;fill-rule:nonzero;stroke:none" id="path796"/><path d="m 1910,170 h -10 v -10 h 10 v 10" style="fill:#8f563b;fill-opacity:1;fill-rule:nonzero;stroke:none" id="path798"/><path d="m 1720,170 v -10 h 20 v 10 h -20" style="fill:#8f563b;fill-opacity:1;fill-rule:nonzero;stroke:none" id="path800"/><path d="m 1690,160 h 10 v 10 h -10 v -10" style="fill:#8f563b;fill-opacity:1;fill-rule:nonzero;stroke:none" id="path802"/><path d="m 1630,160 h 10 v 10 h -10 v -10" style="fill:#8f563b;fill-opacity:1;fill-rule:nonzero;stroke:none" id="path804"/><path d="m 1770,170 v 10 h -10 v -10 h 10" style="fill:#8f563b;fill-opacity:1;fill-rule:nonzero;stroke:none" id="path806"/><path d="m 1820,190 v -10 h -10 v -10 h 20 v 10 h 10 v 10 h -20" style="fill:#8f563b;fill-opacity:1;fill-rule:nonzero;stroke:none" id="path808"/><path d="m 1670,190 v -10 h -10 v -10 h 20 v 10 h 10 v 10 h -20" style="fill:#8f563b;fill-opacity:1;fill-rule:nonzero;stroke:none" id="path810"/><path d="m 1620,180 v 10 h -20 v -10 h 20" style="fill:#8f563b;fill-opacity:1;fill-rule:nonzero;stroke:none" id="path812"/><path d="m 1860,200 v -20 h 10 v -10 h 10 v 20 h -10 v 10 h -10" style="fill:#8f563b;fill-opacity:1;fill-rule:nonzero;stroke:none" id="path814"/><path d="m 1760,200 h -10 v -10 h -10 v -10 h 20 v 20" style="fill:#8f563b;fill-opacity:1;fill-rule:nonzero;stroke:none" id="path816"/><path d="m 1640,200 v -10 h -10 v -10 h 20 v 10 h 10 v 10 h -20" style="fill:#8f563b;fill-opacity:1;fill-rule:nonzero;stroke:none" id="path818"/><path d="m 1900,210 v -10 h -10 v -10 h 20 v 10 h 10 v 20 h -10 v -10 h -10" style="fill:#8f563b;fill-opacity:1;fill-rule:nonzero;stroke:none" id="path820"/><path d="m 1710,210 v -10 h -10 v -10 h 10 v -10 h 10 v 10 h 10 v 20 h -20" style="fill:#8f563b;fill-opacity:1;fill-rule:nonzero;stroke:none" id="path822"/><path d="m 1600,200 h 10 v 10 h -10 v -10" style="fill:#8f563b;fill-opacity:1;fill-rule:nonzero;stroke:none" id="path824"/><path d="m 1890,230 h -20 v -10 h -20 v -10 h 30 v -10 h 10 v 30" style="fill:#8f563b;fill-opacity:1;fill-rule:nonzero;stroke:none" id="path826"/><path d="m 1800,210 h -30 v -10 h 10 v -10 h 30 v 30 h -10 v -10" style="fill:#8f563b;fill-opacity:1;fill-rule:nonzero;stroke:none" id="path828"/><path d="m 1820,230 v 10 h -10 v -20 h 10 v -20 h 10 v 10 h 10 v 10 h 10 v 10 h -30" style="fill:#8f563b;fill-opacity:1;fill-rule:nonzero;stroke:none" id="path830"/><path d="m 1780,220 h 20 v 20 h -10 v 10 h -10 v -10 h -10 v -10 h 10 v -10" style="fill:#8f563b;fill-opacity:1;fill-rule:nonzero;stroke:none" id="path832"/><path d="m 1770,230 h -10 v 10 h -10 v -10 h -10 v -10 h 10 v -10 h 20 v 20" style="fill:#8f563b;fill-opacity:1;fill-rule:nonzero;stroke:none" id="path834"/><path d="m 1610,210 h 10 v 20 h -10 v -20" style="fill:#8f563b;fill-opacity:1;fill-rule:nonzero;stroke:none" id="path836"/><path d="m 1890,240 v -10 h 10 v -10 h 10 v 10 h 10 v 10 h -30" style="fill:#8f563b;fill-opacity:1;fill-rule:nonzero;stroke:none" id="path838"/><path d="m 1870,230 v 10 h -20 v -10 h 20" style="fill:#8f563b;fill-opacity:1;fill-rule:nonzero;stroke:none" id="path840"/><path d="m 1690,230 h -20 v -10 h -10 v -10 h 10 v -10 h 20 v 20 h 10 v 20 h -10 v -10" style="fill:#8f563b;fill-opacity:1;fill-rule:nonzero;stroke:none" id="path842"/><path d="m 1660,240 h -40 v -10 h 10 v -20 h 20 v 10 h 10 v 20" style="fill:#8f563b;fill-opacity:1;fill-rule:nonzero;stroke:none" id="path844"/><path d="m 1750,240 v 10 h -50 v -10 h 10 v -20 h 20 v 10 h 10 v 10 h 10" style="fill:#8f563b;fill-opacity:1;fill-rule:nonzero;stroke:none" id="path846"/><path d="m 1620,240 v 10 h -20 v -20 h 10 v 10 h 10" style="fill:#8f563b;fill-opacity:1;fill-rule:nonzero;stroke:none" id="path848"/><path d="m 495.102,856 v 10 h -10 v 9.996 h 19.996 V 866 h 19.996 v 19.992 h -29.992 v 10 h -10 v 19.992 h 10 v 9.996 h 39.992 v -9.996 h 9.996 v -9.992 h -19.996 v 9.992 h -19.996 v -19.992 h 29.996 v -10 h 9.996 V 866 h -9.996 v -10 h -39.992" style="fill:#ffffff;fill-opacity:1;fill-rule:nonzero;stroke:none" id="path850"/><path d="m 575.078,856 v 59.984 h -19.996 v 9.996 h 59.984 v -9.996 H 595.074 V 856 h -19.996" style="fill:#ffffff;fill-opacity:1;fill-rule:nonzero;stroke:none" id="path852"/><path d="m 665.059,895.992 v 19.992 h -10 v -9.992 h -9.996 v -10 z M 625.066,856 v 49.992 h 10 v 9.992 h 9.997 v 9.996 h 29.996 v -9.996 h 9.996 V 856 h -19.996 v 29.992 H 645.063 V 856 h -19.997" style="fill:#ffffff;fill-opacity:1;fill-rule:nonzero;stroke:none" id="path854"/><path d="m 735.043,895.992 v 19.992 H 715.051 V 895.992 Z M 695.055,856 v 69.98 h 49.988 v -9.996 h 9.996 v -19.992 h -9.996 v -10 h 9.996 V 856 h -19.996 v 29.992 H 715.051 V 856 h -19.996" style="fill:#ffffff;fill-opacity:1;fill-rule:nonzero;stroke:none" id="path856"/><path d="m 785.027,856 v 59.984 h -19.992 v 9.996 h 59.985 v -9.996 H 805.023 V 856 h -19.996" style="fill:#ffffff;fill-opacity:1;fill-rule:nonzero;stroke:none" id="path858"/><path d="m 875.004,856 v 69.98 H 895 v -19.988 h 9.996 v -10 h 10 v -10 h 10 v 39.988 h 19.988 V 856 h -19.988 v 10 h -10 v 9.996 h -10 v 9.996 H 895 V 856 h -19.996" style="fill:#ffffff;fill-opacity:1;fill-rule:nonzero;stroke:none" id="path860"/><path d="m 954.984,856 v 69.98 h 59.986 v -9.996 h -39.99 v -19.992 h 30 v -10 h -30 V 866 h 39.99 v -10 h -59.986" style="fill:#ffffff;fill-opacity:1;fill-rule:nonzero;stroke:none" id="path862"/><path d="m 1074.96,856 v 10 h 10 v 59.98 h 20 V 866 h -10.01 v -10 z m -20,10 v 19.992 h 20 V 866 Z m -19.99,-10 v 10 h -10 v 59.98 h 19.99 V 866 h 10 v -10 h -19.99" style="fill:#ffffff;fill-opacity:1;fill-rule:nonzero;stroke:none" id="path864"/><path d="m 1164.96,856 v 10 h -10 v 49.984 h 10 v 9.996 h 40 v -9.996 h 9.98 v -9.992 h -19.98 v 9.992 h -20 V 866 h 20 v 9.996 h -10 v 9.996 h 29.98 V 866 h -9.98 v -10 h -40" style="fill:#ffffff;fill-opacity:1;fill-rule:nonzero;stroke:none" id="path866"/><path d="m 1264.94,895.992 v 19.992 h -10 v -9.992 h -10 v -10 z m -40,-39.992 v 49.992 h 10 v 9.992 h 10 v 9.996 h 30 v -9.996 h 10 V 856 h -20 v 29.992 h -20 V 856 h -20" style="fill:#ffffff;fill-opacity:1;fill-rule:nonzero;stroke:none" id="path868"/><path d="m 1294.92,856 v 69.98 h 20 v -9.996 h 10 v -9.992 h 10 v 9.992 h 10 v 9.996 h 19.98 V 856 h -19.98 v 39.992 h -10 v -10 h -10 v 10 h -10 V 856 h -20" style="fill:#ffffff;fill-opacity:1;fill-rule:nonzero;stroke:none" id="path870"/><path d="m 1374.9,856 v 69.98 h 60 v -9.996 h -40 v -19.992 h 30 v -10 h -30 V 866 h 40 v -10 h -60" style="fill:#ffffff;fill-opacity:1;fill-rule:nonzero;stroke:none" id="path872"/><path d="m 710.059,748.004 v 10 h 10 v 39.988 h -10 v 9.996 h 10 v 9.996 h 19.992 v -59.98 h 10 v -10 h -39.992" style="fill:#ffffff;fill-opacity:1;fill-rule:nonzero;stroke:none" id="path874"/><path d="m 840.023,787.992 v 19.996 h -19.996 v -19.996 z m -39.988,-39.988 v 69.98 h 49.988 v -9.996 h 9.997 v -29.996 h -39.993 v -29.988 h -19.992" style="fill:#ffffff;fill-opacity:1;fill-rule:nonzero;stroke:none" id="path876"/><path d="m 870.02,748.004 v 69.98 h 19.996 v -59.98 h 39.988 v -10 H 870.02" style="fill:#ffffff;fill-opacity:1;fill-rule:nonzero;stroke:none" id="path878"/><path d="m 980,787.992 v 19.996 h -10.004 v -9.996 H 960 v -10 z m -39.996,-39.988 v 49.988 h 10 v 9.996 H 960 v 9.996 h 30 v -9.996 h 9.988 V 748.004 H 980 v 29.988 h -20 v -29.988 h -19.996" style="fill:#ffffff;fill-opacity:1;fill-rule:nonzero;stroke:none" id="path880"/><path d="m 1029.98,748.004 v 29.988 h -10 v 10 h -10 v 29.992 h 20 v -29.992 h 20 v 29.992 h 19.99 v -29.992 h -9.99 v -10 h -10 v -29.988 h -20" style="fill:#ffffff;fill-opacity:1;fill-rule:nonzero;stroke:none" id="path882"/><path d="m 1079.96,748.004 v 69.98 h 60 v -9.996 h -40 v -19.996 h 30 v -10 h -30 v -19.988 h 40 v -10 h -60" style="fill:#ffffff;fill-opacity:1;fill-rule:nonzero;stroke:none" id="path884"/><path d="m 1189.94,787.992 v 19.996 h -20 v -19.996 z m -39.98,-39.988 v 69.98 h 49.98 v -9.996 h 10 v -19.996 h -10 v -10 h 10 v -29.988 h -20 v 29.988 h -20 v -29.988 h -19.98" style="fill:#ffffff;fill-opacity:1;fill-rule:nonzero;stroke:none" id="path886"/><path d="m 665.066,640 v 19.996 h 10 v 9.992 h 9.997 v 10 h 19.996 v 19.996 h -19.996 v -9.996 h -9.997 v -10 h -10 v 19.996 h 10 v 9.996 h 39.993 v -9.996 h 9.996 v -19.996 h -9.996 v -10 h -20 v -9.992 h -9.996 V 650 h 39.992 v -10 h -59.989" style="fill:#ffffff;fill-opacity:1;fill-rule:nonzero;stroke:none" id="path888"/><path d="m 815.035,679.988 v 19.996 H 795.039 V 679.988 Z M 775.043,640 v 69.98 h 49.992 v -9.996 h 9.992 V 669.988 H 795.039 V 640 h -19.996" style="fill:#ffffff;fill-opacity:1;fill-rule:nonzero;stroke:none" id="path890"/><path d="m 845.023,640 v 69.98 H 865.02 V 650 h 39.992 v -10 h -59.989" style="fill:#ffffff;fill-opacity:1;fill-rule:nonzero;stroke:none" id="path892"/><path d="m 954.996,679.988 v 19.996 h -10 v -9.996 H 935 v -10 z M 915.004,640 v 49.988 h 10 v 9.996 H 935 v 9.996 h 29.996 v -9.996 h 9.992 V 640 h -19.992 v 29.988 H 935 V 640 h -19.996" style="fill:#ffffff;fill-opacity:1;fill-rule:nonzero;stroke:none" id="path894"/><path d="m 1004.98,640 v 29.988 h -9.992 v 10 h -10 v 29.992 h 19.992 v -29.992 h 20 v 29.992 h 20 v -29.992 h -10 v -10 h -10 V 640 h -20" style="fill:#ffffff;fill-opacity:1;fill-rule:nonzero;stroke:none" id="path896"/><path d="m 1054.98,640 v 69.98 h 59.98 v -9.996 h -39.99 v -19.996 h 29.99 v -10 h -29.99 V 650 h 39.99 v -10 h -59.98" style="fill:#ffffff;fill-opacity:1;fill-rule:nonzero;stroke:none" id="path898"/><path d="m 1164.94,679.988 v 19.996 h -19.98 V 679.988 Z M 1124.96,640 v 69.98 h 49.98 v -9.996 h 10 v -19.996 h -10 v -10 h 10 V 640 h -20 v 29.988 h -19.98 V 640 h -20" style="fill:#ffffff;fill-opacity:1;fill-rule:nonzero;stroke:none" id="path900"/><path d="m 1204.94,640 v 10 h -10 v 9.996 h 20 V 650 h 19.98 v 19.988 h -29.98 v 10 h -10 v 19.996 h 10 v 9.996 h 39.98 v -9.996 h 10 v -9.996 h -20 v 9.996 h -19.98 v -19.996 h 29.98 v -10 h 10 V 650 h -10 v -10 h -39.98" style="fill:#ffffff;fill-opacity:1;fill-rule:nonzero;stroke:none" id="path902"/></g></g></svg>