<svg xmlns="http://www.w3.org/2000/svg" xmlns:xlink="http://www.w3.org/1999/xlink" zoomAndPan="magnify" preserveAspectRatio="xMidYMid meet" version="1.0" viewBox="11.43 151.27 352.08 65.23"><defs><g/></defs><g fill="#C45E5E" fill-opacity="1"><g transform="translate(4.917762, 216.488863)"><g><path d="M 6.519531 0 L 19.5625 0 L 19.5625 -13.042969 L 58.683594 -13.042969 L 58.683594 -26.082031 L 19.5625 -26.082031 L 19.5625 -52.164062 L 58.683594 -52.164062 L 58.683594 -65.207031 L 6.519531 -65.207031 Z M 58.683594 -26.082031 L 71.726562 -26.082031 L 71.726562 -52.164062 L 58.683594 -52.164062 Z M 58.683594 -26.082031 "/></g></g></g><g fill="#8e3148" fill-opacity="1"><g transform="translate(83.151414, 216.488863)"><g><path d="M 6.519531 0 L 45.644531 0 L 45.644531 -13.042969 L 32.601562 -13.042969 L 32.601562 -52.164062 L 45.644531 -52.164062 L 45.644531 -65.207031 L 6.519531 -65.207031 L 6.519531 -52.164062 L 19.5625 -52.164062 L 19.5625 -13.042969 L 6.519531 -13.042969 Z M 6.519531 0 "/></g></g></g><g fill="#8e3148" fill-opacity="1"><g transform="translate(135.307168, 216.488863)"><g><path d="M 19.5625 -26.082031 L 6.519531 -26.082031 L 6.519531 0 L 19.5625 0 Z M 6.519531 -39.125 L 19.5625 -39.125 L 19.5625 -65.207031 L 6.519531 -65.207031 Z M 19.5625 -26.082031 L 58.683594 -26.082031 L 58.683594 -39.125 L 19.5625 -39.125 Z M 58.683594 0 L 71.726562 0 L 71.726562 -26.082031 L 58.683594 -26.082031 Z M 58.683594 -39.125 L 71.726562 -39.125 L 71.726562 -65.207031 L 58.683594 -65.207031 Z M 58.683594 -39.125 "/></g></g></g><g fill="#8e3148" fill-opacity="1"><g transform="translate(213.54082, 216.488863)"><g><path d="M 6.519531 0 L 71.726562 0 L 71.726562 -13.042969 L 19.5625 -13.042969 L 19.5625 -26.082031 L 58.683594 -26.082031 L 58.683594 -39.125 L 19.5625 -39.125 L 19.5625 -52.164062 L 71.726562 -52.164062 L 71.726562 -65.207031 L 6.519531 -65.207031 Z M 6.519531 0 "/></g></g></g><g fill="#8e3148" fill-opacity="1"><g transform="translate(291.774472, 216.488863)"><g><path d="M 19.5625 0 L 71.726562 0 L 71.726562 -13.042969 L 19.5625 -13.042969 Z M 6.519531 -13.042969 L 19.5625 -13.042969 L 19.5625 -65.207031 L 6.519531 -65.207031 Z M 6.519531 -13.042969 "/></g></g></g></svg>